<svg width="154" height="116" viewBox="0 0 154 116" fill="none" xmlns="http://www.w3.org/2000/svg">
<path d="M18.7552 90.284H15.1074V88.8115C15.1955 87.0385 15.7285 85.3113 16.6616 83.7745C17.5947 82.2377 18.901 80.9357 20.4711 79.9776L23.0873 78.5231C23.8091 78.0561 24.6494 77.7823 25.5205 77.7305C26.3916 77.6787 27.2613 77.8507 28.0385 78.2287C28.7709 78.6811 29.3625 79.3121 29.7517 80.056C30.1409 80.7998 30.3134 81.6294 30.2514 82.4582C30.2514 83.1721 30.4483 83.6093 30.6547 83.7164C30.8609 83.8235 31.3486 83.7788 31.9955 83.4219L34.8837 81.8336C35.9034 81.1812 36.7539 80.3169 37.3712 79.306C37.9885 78.295 38.3564 77.1639 38.447 75.9979C38.5359 74.2251 39.0691 72.4983 40.0022 70.9615C40.9353 69.4248 42.2411 68.1227 43.8107 67.1641L46.2957 65.7988C46.9988 65.2914 47.8438 64.9929 48.7245 64.9406C49.6052 64.8883 50.4827 65.0846 51.2466 65.5048C52.0107 65.925 52.6273 66.5504 53.0193 67.3028C53.4114 68.0551 53.5613 68.9008 53.4504 69.7339C53.4504 70.4478 53.6473 70.885 53.8536 70.9921C54.0599 71.0991 54.5475 71.0545 55.1945 70.6976L57.295 69.5465C58.3155 68.8895 59.1657 68.0203 59.7814 67.0047C60.397 65.9891 60.7621 64.8536 60.8488 63.6841C60.9366 61.9132 61.4685 60.1882 62.4 58.6529C63.3315 57.1177 64.6355 55.8168 66.2032 54.8591L68.6882 53.5385C69.3902 53.0266 70.236 52.7244 71.1186 52.6698C72.0011 52.6153 72.8809 52.811 73.6466 53.2321C74.4124 53.6533 75.0297 54.2811 75.4206 55.036C75.8115 55.7909 75.9585 56.6392 75.8429 57.4736V59.3742H72.2046V57.429C72.2046 56.7062 71.9983 56.2779 71.8013 56.1708C71.6044 56.0638 71.1074 56.1084 70.4511 56.4653L67.9661 57.8305C66.9458 58.4857 66.0956 59.3531 65.4798 60.3674C64.8641 61.3815 64.499 62.5157 64.4122 63.6841C64.3272 65.4546 63.7985 67.1802 62.8704 68.7169C61.9422 70.2534 60.6415 71.5567 59.0766 72.5179L56.9855 73.669C56.2813 74.1749 55.4362 74.4722 54.5556 74.5239C53.675 74.5755 52.7979 74.3793 52.0337 73.9595C51.2696 73.5398 50.6523 72.9152 50.2589 72.1638C49.8654 71.4123 49.7133 70.5671 49.8215 69.7339C49.8215 69.0201 49.6245 68.5828 49.4182 68.4758C49.2119 68.3687 48.7243 68.4133 48.0773 68.7702L45.5829 70.1444C44.5617 70.7986 43.7108 71.6659 43.0949 72.6802C42.4791 73.6945 42.1145 74.8292 42.0291 75.9979C41.9412 77.7686 41.4095 79.4938 40.478 81.029C39.5465 82.5643 38.2425 83.8651 36.6747 84.8228L33.796 86.4111C33.0706 86.8736 32.2291 87.1446 31.3576 87.1964C30.486 87.2481 29.6157 87.0788 28.8355 86.7056C28.1062 86.2507 27.5176 85.6189 27.1302 84.8755C26.7429 84.1321 26.5709 83.3038 26.6318 82.4761C26.6318 81.7622 26.4256 81.325 26.2287 81.2179C26.0317 81.1108 25.5348 81.1555 24.8783 81.5124L22.2715 82.9847C21.2608 83.6399 20.4193 84.5046 19.8103 85.5138C19.2012 86.523 18.8404 87.6505 18.7552 88.8115V90.284Z" fill="#FBFBFB"/>
<path d="M71.5664 50.6296L76.4706 80.6825L153.606 11.0647L71.5664 50.6296Z" fill="#634BFF"/>
<path d="M76.1039 81.5212L71.0215 50.3708L71.3404 50.2102L153.39 10.6274L154 11.3591L76.7885 81.0394L76.1039 81.5212ZM72.1093 50.8615L76.7978 79.6831L150.783 12.9117L72.1093 50.8615Z" fill="#281C1C"/>
<path d="M86.3168 59.3027L75.9551 80.5754L76.1051 81.5212L99.0229 65.5311L86.3168 59.3027Z" fill="#281C1C"/>
<path d="M153.606 11.0647L46.5195 36.0493L71.5657 50.6296L153.606 11.0647Z" fill="#634BFF"/>
<path d="M153.605 11.0647L118.113 77.0955L87.1973 59.2582L153.605 11.0647Z" fill="#634BFF"/>
<path d="M153.597 15.7761L118.995 80.1561L88.0508 62.3099L152.94 15.2496C153.02 15.193 153.117 15.1637 153.217 15.1664C153.317 15.1692 153.412 15.2039 153.488 15.265C153.564 15.326 153.616 15.4097 153.636 15.5025C153.656 15.5953 153.642 15.6918 153.597 15.7761Z" fill="#FBFBFB"/>
<path d="M71.0217 50.3706L72.1094 50.8971L72.419 52.7888L144.492 18.0245L152.565 11.5642L142.26 16.5343L45.4785 39.1186L70.5248 53.6989L71.4906 53.2349L71.0217 50.3706Z" fill="#FBFBFB"/>
<path d="M154.5 11.3591V11.1781L154.384 11.0391L153.774 10.3074L153.577 10.0704L153.277 10.1405L71.03 29.334L71.03 29.334L46.2845 35.1072L46.2839 35.1073L45.1311 35.3749L43.9032 35.6599L44.9926 36.2941L71.2953 51.6061L71.5246 51.7395L71.7637 51.6245L102.08 37.0352L102.08 37.035L144.133 16.7537L126.063 29.8443L126.063 29.8446L86.6047 58.4868L86.6035 58.4877L86.0232 58.9062L85.3962 59.3586L86.066 59.7449L118.061 78.1978L118.507 78.4551L118.751 78.0015L124.002 68.2397L124.002 68.2395L154.44 11.6047L154.5 11.4939V11.368V11.3591ZM145.218 14.0158L101.67 35.0242L77.7412 29.7789L131.176 17.307L131.177 17.3068L145.218 14.0158ZM136.514 24.6845L136.515 24.684L150.684 14.3733L123.465 65.0324L110.25 43.7387L136.514 24.6845ZM98.8109 36.3992L71.6065 49.5284L49.1631 36.4395L73.2944 30.851L98.8109 36.3992ZM122.365 67.0575L117.72 75.7352L88.9959 59.1654L108.633 44.9078L122.365 67.0575Z" fill="#281C1C" stroke="#281C1C"/>
<path d="M108.23 55.6086L102.828 61.6852L111.268 69.4037L116.631 63.2468L108.23 55.6086ZM111.118 66.3877L105.361 61.2123L108.314 57.8483L114.053 62.9702L111.118 66.3877Z" fill="#634BFF"/>
<path d="M111.108 66.3878L104.545 60.454L108.164 56.385L114.662 62.2654L111.108 66.3878ZM105.257 60.4183L111.062 65.7007L114.015 62.301L108.23 57.1078L105.257 60.4183Z" fill="#281C1C"/>
<path d="M111.222 68.8059L102.211 60.5878L108.1 53.9758L117.064 62.0958L111.222 68.8059ZM103.233 60.5431L111.156 67.7708L116.051 62.1582L108.156 55.0198L103.233 60.5431Z" fill="#281C1C"/>
<path d="M116.097 49.648C116.097 54.2077 111.83 57.9287 106.579 57.9287C104.52 57.9822 102.499 57.3888 100.831 56.2405C99.161 55.0922 97.9353 53.4528 97.3427 51.5754L96.8555 51.9234C97.5219 53.8635 98.8278 55.5474 100.579 56.7256C102.331 57.9037 104.435 58.5134 106.579 58.464C112.14 58.464 116.659 54.5111 116.659 49.648C116.621 47.9386 116.059 46.2771 115.043 44.8667C114.027 43.4563 112.6 42.3582 110.94 41.7065L110.424 42.0813C112.056 42.6586 113.469 43.6881 114.48 45.0368C115.491 46.3856 116.054 47.9918 116.097 49.648Z" fill="#281C1C"/>
<path d="M114.138 49.648C114.138 53.2172 110.809 56.0994 106.721 56.0994C104.945 56.1606 103.209 55.595 101.844 54.5111C100.48 53.4272 99.5855 51.9017 99.3324 50.228L98.8164 50.6027C99.1613 52.3406 100.147 53.9041 101.597 55.0116C103.046 56.1191 104.863 56.6978 106.721 56.6437C111.119 56.6437 114.711 53.5027 114.711 49.648C114.658 48.1361 114.101 46.6793 113.122 45.4877C112.143 44.2961 110.791 43.4314 109.262 43.0181L108.69 43.4286C110.197 43.7398 111.551 44.5207 112.538 45.6473C113.525 46.774 114.088 48.182 114.138 49.648Z" fill="#281C1C"/>
<path d="M22.2703 91.345H18.6602V89.8731C18.7472 88.1022 19.2787 86.3768 20.2102 84.8415C21.1418 83.3061 22.4462 82.0054 24.0145 81.0483L26.6401 79.6027C27.3625 79.1374 28.2028 78.8648 29.0734 78.813C29.944 78.7612 30.8135 78.9322 31.5912 79.3082C32.3149 79.7661 32.8972 80.3995 33.278 81.1429C33.6588 81.8864 33.8242 82.7132 33.7573 83.5378C33.7573 84.2516 33.9635 84.6889 34.1605 84.796C34.3574 84.903 34.8544 84.8584 35.5108 84.5015L38.4458 82.9132C39.4671 82.259 40.318 81.3917 40.9339 80.3773C41.5498 79.3629 41.9142 78.2283 41.9997 77.0596C42.0875 75.2888 42.6194 73.5637 43.5509 72.0285C44.4824 70.4932 45.7864 69.1924 47.354 68.2347L49.8484 66.8606C50.5525 66.3546 51.3977 66.0574 52.2783 66.0057C53.1589 65.954 54.036 66.1503 54.8002 66.57C55.5643 66.9897 56.1816 67.6143 56.575 68.3658C56.9684 69.1172 57.1206 69.9623 57.0125 70.7956C57.0125 71.5095 57.2094 71.9467 57.4156 72.0538C57.622 72.1609 58.1096 72.1163 58.7566 71.7593L60.8571 70.6083C61.8759 69.9516 62.725 69.0838 63.3406 68.0699C63.9562 67.056 64.3221 65.9226 64.4109 64.7547C64.4973 62.9824 65.0285 61.2555 65.9599 59.7185C66.8915 58.1817 68.1964 56.8794 69.7653 55.9209L72.2033 54.5556C72.9064 54.0453 73.7523 53.7443 74.6348 53.6904C75.5172 53.6365 76.3967 53.8322 77.1625 54.2529C77.9284 54.6735 78.5463 55.3003 78.9386 56.0544C79.331 56.8085 79.4802 57.6561 79.3674 58.4907V60.3913H75.7854V58.4907C75.7854 57.768 75.5885 57.3396 75.3821 57.2326C75.1759 57.1255 74.6882 57.1701 74.0413 57.527L71.5469 58.8923C70.5255 59.5482 69.6745 60.4172 69.0588 61.433C68.4429 62.4488 68.0785 63.5848 67.993 64.7547C67.9037 66.5251 67.3713 68.2497 66.4399 69.7847C65.5086 71.3197 64.2053 72.6208 62.6387 73.5796L60.5382 74.7307C59.8351 75.238 58.9901 75.5365 58.1094 75.5889C57.2286 75.6411 56.3512 75.4449 55.5872 75.0247C54.8232 74.6045 54.2065 73.979 53.8145 73.2267C53.4225 72.4744 53.2726 71.6287 53.3836 70.7956C53.3836 70.0818 53.1772 69.6535 52.9803 69.5375C52.7834 69.4215 52.2864 69.475 51.63 69.8319L49.145 71.2061C48.1238 71.8602 47.2729 72.7275 46.657 73.7419C46.0412 74.7563 45.6766 75.8909 45.5912 77.0596C45.5031 78.8326 44.9701 80.5597 44.037 82.0966C43.1038 83.6333 41.7976 84.9353 40.2275 85.8935L37.3487 87.4461C36.6262 87.9113 35.786 88.184 34.9153 88.2358C34.0447 88.2875 33.1753 88.1165 32.3976 87.7406C31.6669 87.287 31.0771 86.6555 30.6896 85.9117C30.3021 85.168 30.131 84.339 30.1939 83.511C30.1939 82.7972 29.9877 82.36 29.7908 82.2529C29.5938 82.1458 29.0969 82.1904 28.4404 82.5473L25.8242 83.9929C24.803 84.647 23.9521 85.5142 23.3362 86.5287C22.7204 87.543 22.3558 88.6777 22.2703 89.8464V91.345Z" fill="#281C1C"/>
<path d="M2.70998 116H0V115.295C0.0404765 114.368 0.317799 113.464 0.807967 112.662C1.29813 111.859 1.98638 111.183 2.81312 110.691L4.06028 110.004C4.47461 109.747 4.95282 109.599 5.44671 109.573C5.9406 109.548 6.4327 109.647 6.87341 109.861C7.29599 110.117 7.63878 110.477 7.8663 110.902C8.0938 111.328 8.19778 111.803 8.16745 112.279C8.16231 112.311 8.16231 112.345 8.16745 112.377H8.25185L9.6209 111.628C10.0307 111.356 10.372 111.002 10.6201 110.59C10.8682 110.179 11.017 109.719 11.0556 109.245C11.0977 108.318 11.3757 107.415 11.8657 106.613C12.3557 105.811 13.043 105.135 13.8687 104.641L15.0596 103.99C15.474 103.733 15.9522 103.584 16.4461 103.559C16.9399 103.534 17.432 103.633 17.8728 103.847C18.2968 104.104 18.6405 104.466 18.8681 104.892C19.0957 105.319 19.1988 105.797 19.1667 106.274V106.363L19.2606 106.318L20.2546 105.774C20.6656 105.503 21.0083 105.149 21.2581 104.737C21.5078 104.325 21.6583 103.866 21.6985 103.392C21.7391 102.465 22.0164 101.56 22.5066 100.758C22.9967 99.9561 23.685 99.2799 24.5117 98.7871L25.6933 98.1361C26.1084 97.8807 26.587 97.7332 27.0809 97.7099C27.5748 97.6865 28.0665 97.7872 28.5063 98.0021C28.929 98.2593 29.2717 98.619 29.4992 99.0434C29.7267 99.4687 29.8307 99.9444 29.8004 100.42V101.313H27.1936V100.42C27.1936 100.42 27.1936 100.349 27.1936 100.322L27.1092 100.367L25.9277 101.018C25.5164 101.287 25.1733 101.639 24.9235 102.05C24.6736 102.46 24.5233 102.919 24.4836 103.392C24.4446 104.321 24.168 105.226 23.6778 106.03C23.1875 106.834 22.4985 107.512 21.6705 108.005L20.6296 108.505C20.2153 108.761 19.7371 108.911 19.2432 108.935C18.7493 108.96 18.2571 108.861 17.8165 108.647C17.3939 108.391 17.0511 108.031 16.8236 107.606C16.5961 107.18 16.4921 106.706 16.5224 106.229C16.5224 106.229 16.5224 106.158 16.5224 106.131H16.4381L15.2565 106.782C14.8447 107.05 14.5013 107.403 14.2514 107.814C14.0015 108.224 13.8516 108.683 13.8125 109.156C13.7711 110.084 13.4935 110.989 13.0035 111.793C12.5135 112.597 11.8257 113.275 10.9993 113.769L9.63026 114.519C9.2159 114.776 8.73773 114.925 8.24385 114.95C7.74996 114.975 7.25785 114.875 6.81714 114.662C6.39311 114.404 6.0494 114.043 5.82181 113.616C5.59421 113.189 5.49107 112.713 5.52311 112.234C5.52311 112.234 5.52311 112.172 5.52311 112.145H5.43872L4.19156 112.832C3.78155 113.101 3.4399 113.453 3.19167 113.864C2.94342 114.275 2.79486 114.733 2.75687 115.206L2.70998 116Z" fill="#FBFBFB"/>
<path d="M97.6251 15.0442H95.6465V14.4642C95.6789 13.7198 95.9004 12.9939 96.2931 12.3489C96.6849 11.7039 97.2351 11.159 97.897 10.7611L98.9291 10.199C99.2479 9.97287 99.6298 9.84086 100.028 9.81919C100.425 9.79752 100.82 9.88726 101.164 10.0772C101.508 10.2671 101.787 10.5489 101.964 10.8877C102.142 11.2267 102.212 11.6077 102.164 11.9836C102.152 12.0725 102.152 12.1624 102.164 12.2513C102.234 12.2052 102.31 12.1663 102.389 12.1353L103.524 11.5106C103.881 11.2761 104.18 10.9686 104.397 10.6105C104.615 10.2523 104.745 9.85273 104.78 9.44053C104.812 8.69688 105.031 7.97153 105.422 7.3266C105.812 6.68166 106.361 6.13637 107.021 5.73745L107.959 5.20206C108.285 4.99332 108.665 4.87237 109.058 4.85195C109.451 4.83153 109.842 4.91241 110.191 5.08606C110.521 5.28751 110.787 5.56916 110.964 5.90179C111.14 6.23443 111.219 6.60593 111.194 6.97776C111.178 7.06632 111.178 7.15688 111.194 7.24545C111.194 7.24545 111.297 7.19191 111.419 7.12052L112.244 6.67437C112.602 6.43977 112.901 6.13225 113.118 5.77417C113.336 5.41608 113.466 5.01642 113.501 4.60422C113.543 3.84915 113.78 3.11552 114.19 2.46812C114.6 1.82071 115.172 1.27948 115.855 0.892217L116.792 0.356832C117.126 0.136081 117.518 0.00827658 117.923 -0.0122155C118.33 -0.0327076 118.733 0.0549251 119.09 0.240832C119.419 0.442276 119.686 0.723927 119.862 1.05656C120.039 1.3892 120.118 1.7607 120.093 2.13252V2.88206H118.114V2.13252C118.133 2.04718 118.133 1.9591 118.114 1.87375C118.114 1.87375 118.021 1.87376 117.899 1.98976L116.961 2.52514C116.603 2.75974 116.305 3.06726 116.087 3.42534C115.87 3.78343 115.739 4.18309 115.704 4.59529C115.674 5.33894 115.453 6.06429 115.063 6.70922C114.672 7.35416 114.124 7.89944 113.464 8.29837L112.638 8.75345C112.31 8.95778 111.931 9.07607 111.539 9.09649C111.146 9.11681 110.756 9.03849 110.406 8.86945C110.077 8.66589 109.81 8.38256 109.634 8.04854C109.458 7.71452 109.378 7.34187 109.403 6.96883C109.422 6.88349 109.422 6.7954 109.403 6.71006C109.403 6.71006 109.309 6.75468 109.188 6.82606L108.249 7.36145C107.892 7.59605 107.594 7.90357 107.376 8.26165C107.159 8.61973 107.028 9.01942 106.993 9.43163C106.962 10.1753 106.742 10.9006 106.352 11.5455C105.961 12.1904 105.412 12.7357 104.752 13.1346L103.618 13.7593C103.291 13.968 102.911 14.089 102.518 14.1094C102.125 14.1298 101.734 14.049 101.386 13.8753C101.056 13.6717 100.79 13.3884 100.613 13.0544C100.437 12.7204 100.357 12.3477 100.383 11.9746C100.4 11.8892 100.4 11.8014 100.383 11.7159C100.383 11.7159 100.289 11.7694 100.158 11.8319L99.1354 12.403C98.7769 12.6348 98.477 12.9405 98.26 13.2973C98.042 13.6541 97.9124 14.0529 97.879 14.4642L97.6251 15.0442Z" fill="#FBFBFB"/>
</svg>
