<svg width="9" height="9" viewBox="0 0 9 9" fill="none" xmlns="http://www.w3.org/2000/svg">
    <path d="M8.31389 0.686109C8.19469 0.566944 8.03304 0.5 7.86449 0.5C7.69594 0.5 7.53429 0.566944 7.41508 0.686109L4.5 3.60119L1.58492 0.686109C1.46571 0.566944 1.30406 0.5 1.13551 0.5C0.966962 0.5 0.805311 0.566944 0.686109 0.686109C0.566944 0.805311 0.5 0.966962 0.5 1.13551C0.5 1.30406 0.566944 1.46571 0.686109 1.58492L3.60119 4.5L0.686109 7.41508C0.566944 7.53429 0.5 7.69594 0.5 7.86449C0.5 8.03304 0.566944 8.19469 0.686109 8.31389C0.805311 8.43306 0.966962 8.5 1.13551 8.5C1.30406 8.5 1.46571 8.43306 1.58492 8.31389L4.5 5.39881L7.41508 8.31389C7.53429 8.43306 7.69594 8.5 7.86449 8.5C8.03304 8.5 8.19469 8.43306 8.31389 8.31389C8.43306 8.19469 8.5 8.03304 8.5 7.86449C8.5 7.69594 8.43306 7.53429 8.31389 7.41508L5.39881 4.5L8.31389 1.58492C8.43306 1.46571 8.5 1.30406 8.5 1.13551C8.5 0.966962 8.43306 0.805311 8.31389 0.686109Z" fill="#FF4A4A"/>
</svg>
