<svg width="594" height="281" viewBox="0 0 594 281" fill="none" xmlns="http://www.w3.org/2000/svg">
<path d="M387 182.226L357.619 172.76C212.079 136.473 132.851 180.217 203.346 208.975C331.281 264.237 150.475 292.371 0.999984 274.787" stroke="black" stroke-width="2" stroke-miterlimit="10" stroke-linecap="round"/>
<path d="M412.444 214.381L459.143 162.972C461.634 160.229 468.815 158.869 475.148 159.936L585.398 178.486C591.679 179.533 594.82 182.673 592.37 185.395L545.683 236.804C544.681 237.767 543.47 238.483 542.144 238.897L481.942 260.807L416.412 244.56V220.484C412.193 219.165 410.382 216.652 412.444 214.381Z" fill="#B6B4BF" stroke="#B6B4BF" stroke-miterlimit="10"/>
<path d="M351.007 191.477L381.092 186.243L398.553 167.013C401.044 164.271 408.226 162.91 414.559 163.978L458.462 171.305L532.691 158.503V205.389C532.669 206.123 532.366 206.82 531.843 207.337L485.145 258.745C482.664 261.488 475.483 262.849 469.15 261.781L358.848 243.232C353.99 242.415 351.028 240.405 351.028 238.27L351.007 191.477Z" fill="black"/>
<path d="M351.017 238.394V197.569L471.515 217.825C474.655 218.358 476.938 220.463 476.938 222.891V262.115C474.347 262.425 471.724 262.368 469.149 261.948L358.847 243.398C353.979 242.54 351.017 240.53 351.017 238.394Z" fill="#403C3C"/>
<path d="M351.007 191.477L381.092 186.243L398.553 167.013C401.044 164.271 408.226 162.91 414.559 163.978L458.462 171.305L532.691 158.503V205.389C532.669 206.123 532.366 206.82 531.843 207.337L485.145 258.745C482.664 261.488 475.483 262.849 469.15 261.781L358.848 243.232C353.99 242.415 351.028 240.405 351.028 238.27L351.007 191.477Z" stroke="black" stroke-miterlimit="10" stroke-linecap="round"/>
<path d="M351.855 189.562C349.364 192.305 352.504 195.402 358.837 196.459L469.139 215.019C475.42 216.066 482.654 214.726 485.135 211.983L531.833 160.564C534.324 157.822 531.194 154.734 524.861 153.666L414.559 135.107C408.278 134.06 401.045 135.41 398.553 138.143L351.855 189.562Z" fill="black" stroke="black" stroke-miterlimit="10" stroke-linecap="round"/>
<path d="M485.135 258.87L531.834 207.461C532.356 206.945 532.66 206.248 532.682 205.514V169.776" stroke="#403C3C" stroke-miterlimit="10" stroke-linecap="round"/>
<path d="M351.007 57.7473L381.092 52.5133L398.553 33.2939C401.044 30.5512 408.226 29.1904 414.559 30.2581L458.462 37.6381L532.691 24.8252V152.535C532.669 153.27 532.366 153.967 531.843 154.482L485.145 205.891C482.664 208.634 475.483 209.995 469.15 208.927L358.837 190.43C353.98 189.613 351.017 187.604 351.017 185.479L351.007 57.7473Z" fill="#EBE9E9"/>
<path d="M351.017 185.438V63.7666L471.515 84.0223C474.655 84.5562 476.938 86.6603 476.938 89.0889V209.095C474.348 209.414 471.725 209.36 469.149 208.938L358.837 190.431C353.979 189.572 351.017 187.563 351.017 185.438Z" fill="white"/>
<path d="M351.007 57.7473L381.092 52.5133L398.553 33.2939C401.044 30.5512 408.226 29.1904 414.559 30.2581L458.462 37.6381L532.691 24.8252V152.535C532.669 153.27 532.366 153.967 531.843 154.482L485.145 205.891C482.664 208.634 475.483 209.995 469.15 208.927L358.837 190.43C353.98 189.613 351.017 187.604 351.017 185.478L351.007 57.7473Z" stroke="black" stroke-miterlimit="10" stroke-linecap="round"/>
<path d="M351.855 55.8106C349.364 58.5532 352.504 61.6412 358.837 62.7089L469.139 81.2689C475.42 82.3157 482.654 80.9757 485.135 78.2331L531.833 26.814C534.324 24.0713 531.194 20.9831 524.861 19.9154L414.559 1.35548C408.278 0.308675 401.045 1.64869 398.553 4.39133L351.855 55.8106Z" fill="white" stroke="black" stroke-miterlimit="10" stroke-linecap="round"/>
<path d="M429.511 87.7495C428.992 86.6012 429.433 85.2802 430.497 84.7989C431.562 84.3176 432.845 84.8582 433.364 86.0065C433.883 87.1548 433.443 88.4759 432.378 88.9573C431.315 89.4386 430.03 88.8978 429.511 87.7495Z" fill="black"/>
<path d="M422.601 86.5674C422.082 85.4192 422.523 84.0982 423.587 83.6168C424.651 83.1354 425.935 83.6761 426.454 84.8245C426.973 85.9727 426.533 87.2939 425.468 87.7752C424.404 88.2565 423.121 87.7158 422.601 86.5674Z" fill="black"/>
<path d="M415.703 85.386C415.182 84.2376 415.624 82.9164 416.689 82.4351C417.752 81.9538 419.036 82.4946 419.556 83.6429C420.075 84.7912 419.633 86.1123 418.57 86.5937C417.505 87.075 416.222 86.5342 415.703 85.386Z" fill="black"/>
<path d="M408.792 84.2037C408.273 83.0554 408.715 81.7342 409.778 81.2529C410.843 80.7715 412.126 81.3123 412.645 82.4607C413.165 83.6089 412.724 84.93 411.659 85.4113C410.596 85.8926 409.311 85.352 408.792 84.2037Z" fill="black"/>
<path d="M401.882 83.0211C401.362 81.8728 401.804 80.5517 402.868 80.0704C403.932 79.5891 405.215 80.1297 405.736 81.2781C406.255 82.4263 405.813 83.7474 404.748 84.2287C403.685 84.7101 402.401 84.1695 401.882 83.0211Z" fill="black"/>
<path d="M394.964 81.8439C394.444 80.6955 394.886 79.3745 395.95 78.8931C397.014 78.4118 398.297 78.9525 398.818 80.1008C399.337 81.2491 398.895 82.5703 397.831 83.0516C396.767 83.5329 395.483 82.9921 394.964 81.8439Z" fill="black"/>
<path d="M443.344 97.6571C442.825 96.5088 443.267 95.1877 444.331 94.7062C445.395 94.2246 446.679 94.7658 447.198 95.9142C447.718 97.0625 447.276 98.3836 446.212 98.8641C445.148 99.3456 443.865 98.8055 443.344 97.6571Z" fill="black"/>
<path d="M436.435 96.4756C435.916 95.3273 436.356 94.0062 437.421 93.5246C438.485 93.0431 439.769 93.5843 440.288 94.7327C440.807 95.881 440.366 97.2021 439.302 97.6836C438.238 98.1641 436.954 97.624 436.435 96.4756Z" fill="black"/>
<path d="M429.525 95.2938C429.005 94.1455 429.447 92.8244 430.511 92.3429C431.575 91.8614 432.859 92.4026 433.378 93.5509C433.897 94.6993 433.456 96.0203 432.392 96.5019C431.328 96.9823 430.044 96.4422 429.525 95.2938Z" fill="black"/>
<path d="M422.616 94.1119C422.097 92.9635 422.538 91.6424 423.602 91.1609C424.667 90.6794 425.95 91.2195 426.469 92.3679C426.99 93.5162 426.548 94.8373 425.483 95.3188C424.42 95.8004 423.136 95.2592 422.616 94.1119Z" fill="black"/>
<path d="M415.706 92.929C415.187 91.7806 415.628 90.4595 416.693 89.978C417.756 89.4971 419.041 90.0377 419.56 91.186C420.079 92.3344 419.637 93.6554 418.574 94.137C417.509 94.6185 416.226 94.0773 415.706 92.929Z" fill="black"/>
<path d="M408.798 91.7514C408.279 90.603 408.721 89.2822 409.784 88.8008C410.848 88.3195 412.132 88.8603 412.652 90.0084C413.171 91.1568 412.729 92.4779 411.665 92.9594C410.602 93.4409 409.317 92.8997 408.798 91.7514Z" fill="black"/>
<path d="M401.887 90.5695C401.368 89.4216 401.81 88.1004 402.874 87.6191C403.938 87.1378 405.222 87.6785 405.741 88.8268C406.261 89.9749 405.819 91.296 404.755 91.7775C403.691 92.2591 402.408 91.7179 401.887 90.5695Z" fill="black"/>
<path d="M394.978 89.3877C394.459 88.2394 394.899 86.9184 395.964 86.4371C397.028 85.9558 398.312 86.4964 398.831 87.6447C399.35 88.793 398.909 90.1139 397.845 90.5954C396.781 91.077 395.497 90.5358 394.978 89.3877Z" fill="black"/>
<path d="M388.068 88.2056C387.548 87.0573 387.99 85.7363 389.054 85.255C390.118 84.7736 391.402 85.3142 391.921 86.4626C392.44 87.6109 391.999 88.932 390.935 89.4133C389.871 89.8942 388.587 89.354 388.068 88.2056Z" fill="black"/>
<path d="M381.16 87.0241C380.639 85.8758 381.081 84.5546 382.146 84.0733C383.209 83.592 384.493 84.1327 385.013 85.281C385.532 86.4294 385.09 87.7503 384.027 88.2317C382.962 88.713 381.679 88.1724 381.16 87.0241Z" fill="black"/>
<path d="M450.259 106.373C449.74 105.225 450.181 103.903 451.245 103.422C452.309 102.941 453.593 103.481 454.112 104.629C454.632 105.777 454.19 107.099 453.126 107.58C452.062 108.062 450.778 107.52 450.259 106.373Z" fill="black"/>
<path d="M443.361 105.19C442.84 104.042 443.282 102.721 444.347 102.239C445.41 101.758 446.694 102.299 447.214 103.447C447.733 104.596 447.291 105.917 446.228 106.398C445.163 106.88 443.88 106.339 443.361 105.19Z" fill="black"/>
<path d="M442.141 103.854C441.624 102.707 442.067 101.389 443.129 100.91C444.192 100.432 445.473 100.973 445.989 102.12C446.506 103.266 446.063 104.584 445.001 105.064C443.938 105.542 442.657 105.001 442.141 103.854Z" fill="black"/>
<path d="M429.54 102.827C429.021 101.678 429.463 100.357 430.527 99.8756C431.59 99.3952 432.874 99.9353 433.394 101.084C433.913 102.232 433.471 103.553 432.408 104.035C431.344 104.516 430.06 103.975 429.54 102.827Z" fill="black"/>
<path d="M422.63 101.645C422.11 100.496 422.552 99.1753 423.616 98.6938C424.68 98.2133 425.964 98.7534 426.483 99.9018C427.003 101.05 426.561 102.371 425.497 102.853C424.433 103.334 423.15 102.793 422.63 101.645Z" fill="black"/>
<path d="M415.712 100.467C415.193 99.3189 415.634 97.9978 416.698 97.5174C417.762 97.0358 419.045 97.576 419.566 98.7243C420.085 99.8727 419.643 101.194 418.579 101.675C417.515 102.157 416.231 101.616 415.712 100.467Z" fill="black"/>
<path d="M408.812 99.285C408.292 98.1367 408.734 96.8156 409.798 96.3341C410.862 95.8526 412.146 96.3938 412.665 97.5421C413.184 98.6905 412.744 100.012 411.679 100.493C410.615 100.974 409.332 100.433 408.812 99.285Z" fill="black"/>
<path d="M401.902 98.1034C401.382 96.9551 401.824 95.634 402.888 95.1525C403.952 94.6709 405.235 95.2121 405.754 96.3605C406.275 97.5088 405.833 98.8299 404.769 99.3114C403.705 99.7919 402.421 99.2518 401.902 98.1034Z" fill="black"/>
<path d="M394.994 96.9213C394.474 95.7729 394.916 94.4519 395.98 93.9703C397.043 93.4888 398.328 94.03 398.847 95.1773C399.366 96.3257 398.924 97.6478 397.861 98.1283C396.796 98.6098 395.513 98.0696 394.994 96.9213Z" fill="black"/>
<path d="M388.083 95.7396C387.564 94.5913 388.005 93.2702 389.069 92.7887C390.133 92.3072 391.417 92.8484 391.936 93.9967C392.456 95.1451 392.015 96.4661 390.95 96.9466C389.886 97.4281 388.603 96.888 388.083 95.7396Z" fill="black"/>
<path d="M381.173 94.558C380.653 93.4096 381.095 92.0886 382.159 91.607C383.223 91.1255 384.506 91.6667 385.027 92.8151C385.546 93.9634 385.104 95.2845 384.04 95.766C382.976 96.2465 381.692 95.7063 381.173 94.558Z" fill="black"/>
<path d="M457.187 115.097C456.668 113.949 457.108 112.628 458.173 112.147C459.237 111.666 460.521 112.206 461.04 113.354C461.559 114.503 461.118 115.824 460.054 116.305C458.989 116.787 457.706 116.246 457.187 115.097Z" fill="black"/>
<path d="M450.277 113.915C449.757 112.767 450.199 111.446 451.263 110.964C452.327 110.483 453.611 111.024 454.13 112.172C454.649 113.321 454.208 114.642 453.144 115.123C452.08 115.605 450.796 115.064 450.277 113.915Z" fill="black"/>
<path d="M443.378 112.733C442.858 111.585 443.3 110.264 444.364 109.782C445.428 109.302 446.711 109.842 447.232 110.99C447.751 112.139 447.309 113.46 446.246 113.941C445.181 114.423 443.898 113.882 443.378 112.733Z" fill="black"/>
<path d="M436.468 111.552C435.949 110.403 436.391 109.082 437.454 108.601C438.519 108.12 439.802 108.66 440.321 109.809C440.841 110.957 440.399 112.278 439.335 112.76C438.272 113.241 436.987 112.7 436.468 111.552Z" fill="black"/>
<path d="M429.55 110.374C429.031 109.226 429.473 107.905 430.536 107.423C431.601 106.943 432.884 107.483 433.403 108.631C433.923 109.779 433.482 111.1 432.417 111.582C431.354 112.064 430.069 111.522 429.55 110.374Z" fill="black"/>
<path d="M422.64 109.192C422.12 108.044 422.562 106.723 423.626 106.241C424.69 105.76 425.973 106.301 426.493 107.449C427.013 108.598 426.571 109.919 425.507 110.399C424.443 110.881 423.159 110.341 422.64 109.192Z" fill="black"/>
<path d="M415.73 108.01C415.211 106.862 415.652 105.541 416.716 105.059C417.78 104.578 419.064 105.119 419.583 106.267C420.102 107.416 419.661 108.737 418.597 109.218C417.534 109.699 416.249 109.158 415.73 108.01Z" fill="black"/>
<path d="M408.831 106.828C408.312 105.679 408.754 104.359 409.817 103.878C410.882 103.396 412.165 103.936 412.685 105.085C413.204 106.233 412.763 107.554 411.698 108.036C410.635 108.517 409.35 107.976 408.831 106.828Z" fill="black"/>
<path d="M401.921 105.647C401.401 104.498 401.843 103.177 402.907 102.696C403.971 102.214 405.254 102.754 405.775 103.903C406.294 105.051 405.852 106.372 404.788 106.854C403.724 107.335 402.44 106.795 401.921 105.647Z" fill="black"/>
<path d="M395.011 104.465C394.492 103.316 394.934 101.995 395.997 101.514C397.062 101.032 398.345 101.573 398.864 102.722C399.384 103.87 398.942 105.191 397.878 105.672C396.815 106.153 395.53 105.613 395.011 104.465Z" fill="black"/>
<path d="M388.093 103.287C387.574 102.139 388.015 100.818 389.079 100.336C390.144 99.8545 391.427 100.396 391.946 101.544C392.465 102.692 392.025 104.013 390.96 104.494C389.897 104.976 388.612 104.435 388.093 103.287Z" fill="black"/>
<path d="M381.183 102.105C380.663 100.957 381.104 99.6359 382.169 99.1544C383.233 98.6729 384.516 99.2141 385.036 100.362C385.556 101.511 385.114 102.832 384.05 103.312C382.986 103.794 381.702 103.254 381.183 102.105Z" fill="black"/>
<path d="M457.203 122.631C456.683 121.483 457.125 120.162 458.189 119.68C459.252 119.199 460.537 119.74 461.056 120.888C461.575 122.037 461.133 123.358 460.07 123.838C459.005 124.32 457.722 123.78 457.203 122.631Z" fill="black"/>
<path d="M450.292 121.449C449.773 120.301 450.214 118.98 451.278 118.498C452.342 118.017 453.626 118.558 454.145 119.706C454.665 120.855 454.224 122.176 453.159 122.656C452.095 123.138 450.812 122.597 450.292 121.449Z" fill="black"/>
<path d="M443.383 120.267C442.862 119.118 443.304 117.797 444.369 117.317C445.432 116.835 446.716 117.375 447.235 118.524C447.755 119.672 447.313 120.993 446.25 121.475C445.185 121.956 443.902 121.415 443.383 120.267Z" fill="black"/>
<path d="M436.474 119.09C435.955 117.941 436.397 116.62 437.46 116.139C438.524 115.657 439.808 116.198 440.327 117.347C440.847 118.495 440.405 119.816 439.341 120.298C438.277 120.778 436.993 120.238 436.474 119.09Z" fill="black"/>
<path d="M429.565 117.907C429.046 116.758 429.488 115.437 430.551 114.957C431.616 114.475 432.899 115.015 433.418 116.164C433.939 117.312 433.497 118.633 432.432 119.115C431.369 119.596 430.085 119.055 429.565 117.907Z" fill="black"/>
<path d="M422.656 116.726C422.136 115.578 422.577 114.257 423.642 113.775C424.705 113.293 425.99 113.835 426.509 114.983C427.028 116.131 426.586 117.451 425.523 117.933C424.458 118.414 423.175 117.874 422.656 116.726Z" fill="black"/>
<path d="M415.745 115.544C415.226 114.396 415.668 113.075 416.731 112.593C417.796 112.112 419.079 112.653 419.599 113.801C420.118 114.95 419.677 116.271 418.613 116.751C417.549 117.233 416.265 116.693 415.745 115.544Z" fill="black"/>
<path d="M408.846 114.372C408.327 113.225 408.769 111.904 409.833 111.422C410.897 110.941 412.18 111.481 412.7 112.629C413.22 113.777 412.778 115.099 411.714 115.58C410.65 116.062 409.367 115.52 408.846 114.372Z" fill="black"/>
<path d="M401.937 113.19C401.418 112.042 401.858 110.72 402.923 110.239C403.987 109.758 405.271 110.299 405.79 111.447C406.309 112.595 405.868 113.916 404.804 114.398C403.739 114.879 402.456 114.338 401.937 113.19Z" fill="black"/>
<path d="M395.017 112.012C394.498 110.864 394.939 109.543 396.003 109.061C397.067 108.58 398.351 109.121 398.87 110.269C399.389 111.418 398.949 112.739 397.884 113.22C396.82 113.702 395.536 113.16 395.017 112.012Z" fill="black"/>
<path d="M388.106 110.83C387.587 109.682 388.029 108.361 389.092 107.88C390.157 107.398 391.44 107.939 391.959 109.088C392.48 110.236 392.038 111.557 390.973 112.037C389.91 112.519 388.626 111.979 388.106 110.83Z" fill="black"/>
<path d="M381.199 109.649C380.679 108.5 381.12 107.179 382.185 106.698C383.248 106.216 384.533 106.758 385.052 107.906C385.571 109.054 385.129 110.375 384.066 110.857C383.001 111.337 381.718 110.797 381.199 109.649Z" fill="black"/>
<path d="M464.127 131.357C463.606 130.209 464.048 128.888 465.113 128.406C466.176 127.925 467.46 128.466 467.979 129.614C468.499 130.763 468.057 132.083 466.994 132.564C465.929 133.046 464.646 132.506 464.127 131.357Z" fill="black"/>
<path d="M457.216 130.175C456.697 129.026 457.139 127.705 458.202 127.224C459.266 126.743 460.55 127.283 461.069 128.432C461.589 129.58 461.147 130.901 460.083 131.383C459.02 131.864 457.735 131.323 457.216 130.175Z" fill="black"/>
<path d="M450.307 128.993C449.788 127.844 450.23 126.523 451.293 126.043C452.358 125.561 453.641 126.101 454.161 127.25C454.681 128.398 454.239 129.719 453.175 130.201C452.111 130.682 450.828 130.141 450.307 128.993Z" fill="black"/>
<path d="M443.388 127.815C442.869 126.667 443.31 125.346 444.374 124.865C445.438 124.383 446.721 124.924 447.241 126.072C447.761 127.22 447.319 128.541 446.255 129.023C445.191 129.504 443.907 128.963 443.388 127.815Z" fill="black"/>
<path d="M436.489 126.633C435.97 125.485 436.412 124.164 437.476 123.683C438.54 123.202 439.824 123.742 440.343 124.89C440.862 126.039 440.421 127.36 439.357 127.841C438.293 128.323 437.009 127.782 436.489 126.633Z" fill="black"/>
<path d="M429.579 125.452C429.059 124.304 429.501 122.983 430.566 122.501C431.629 122.02 432.913 122.561 433.433 123.708C433.952 124.857 433.51 126.178 432.447 126.659C431.382 127.141 430.099 126.601 429.579 125.452Z" fill="black"/>
<path d="M422.669 124.269C422.15 123.121 422.591 121.8 423.655 121.319C424.719 120.838 426.002 121.378 426.523 122.527C427.042 123.675 426.6 124.996 425.537 125.477C424.472 125.959 423.189 125.418 422.669 124.269Z" fill="black"/>
<path d="M415.759 123.087C415.24 121.939 415.682 120.618 416.745 120.136C417.81 119.656 419.093 120.196 419.612 121.344C420.131 122.493 419.691 123.814 418.626 124.295C417.563 124.777 416.278 124.236 415.759 123.087Z" fill="black"/>
<path d="M408.851 121.906C408.331 120.757 408.773 119.436 409.837 118.955C410.901 118.473 412.184 119.014 412.704 120.163C413.224 121.311 412.782 122.632 411.718 123.114C410.654 123.594 409.371 123.054 408.851 121.906Z" fill="black"/>
<path d="M401.941 120.728C401.422 119.58 401.862 118.258 402.927 117.777C403.99 117.295 405.274 117.837 405.794 118.985C406.313 120.133 405.872 121.454 404.808 121.936C403.743 122.416 402.46 121.876 401.941 120.728Z" fill="black"/>
<path d="M395.032 119.546C394.513 118.398 394.955 117.077 396.019 116.595C397.083 116.114 398.366 116.655 398.886 117.803C399.405 118.952 398.964 120.273 397.9 120.754C396.836 121.235 395.552 120.695 395.032 119.546Z" fill="black"/>
<path d="M388.123 118.364C387.603 117.216 388.044 115.895 389.109 115.413C390.172 114.932 391.456 115.473 391.975 116.62C392.495 117.769 392.054 119.09 390.989 119.571C389.925 120.053 388.642 119.513 388.123 118.364Z" fill="black"/>
<path d="M381.212 117.183C380.693 116.034 381.134 114.713 382.198 114.232C383.262 113.75 384.546 114.291 385.066 115.44C385.585 116.588 385.143 117.909 384.079 118.389C383.015 118.871 381.731 118.331 381.212 117.183Z" fill="black"/>
<path d="M464.142 138.89C463.622 137.743 464.063 136.421 465.128 135.94C466.192 135.459 467.475 135.999 467.995 137.147C468.514 138.296 468.073 139.617 467.009 140.098C465.945 140.58 464.661 140.038 464.142 138.89Z" fill="black"/>
<path d="M457.222 137.712C456.703 136.564 457.145 135.243 458.208 134.761C459.272 134.28 460.556 134.821 461.075 135.969C461.595 137.118 461.153 138.439 460.089 138.92C459.026 139.401 457.741 138.861 457.222 137.712Z" fill="black"/>
<path d="M450.311 136.531C449.792 135.382 450.234 134.061 451.297 133.58C452.362 133.098 453.645 133.639 454.165 134.788C454.685 135.936 454.243 137.257 453.178 137.739C452.115 138.22 450.832 137.679 450.311 136.531Z" fill="black"/>
<path d="M443.402 135.349C442.881 134.2 443.323 132.879 444.388 132.398C445.451 131.917 446.735 132.457 447.255 133.606C447.774 134.754 447.333 136.075 446.269 136.557C445.204 137.038 443.921 136.497 443.402 135.349Z" fill="black"/>
<path d="M436.503 134.167C435.984 133.019 436.426 131.697 437.489 131.216C438.554 130.734 439.837 131.276 440.356 132.424C440.876 133.572 440.435 134.893 439.37 135.374C438.307 135.855 437.022 135.315 436.503 134.167Z" fill="black"/>
<path d="M429.592 132.985C429.073 131.837 429.515 130.516 430.579 130.034C431.643 129.553 432.927 130.094 433.446 131.242C433.966 132.391 433.524 133.712 432.46 134.192C431.396 134.674 430.113 134.134 429.592 132.985Z" fill="black"/>
<path d="M422.685 131.803C422.166 130.655 422.606 129.334 423.671 128.852C424.735 128.371 426.019 128.912 426.538 130.06C427.057 131.209 426.616 132.53 425.552 133.011C424.488 133.492 423.204 132.951 422.685 131.803Z" fill="black"/>
<path d="M415.765 130.626C415.246 129.477 415.687 128.156 416.751 127.675C417.816 127.193 419.099 127.734 419.618 128.883C420.137 130.031 419.697 131.352 418.632 131.834C417.568 132.314 416.284 131.774 415.765 130.626Z" fill="black"/>
<path d="M408.857 129.444C408.337 128.295 408.778 126.974 409.843 126.493C410.906 126.011 412.19 126.552 412.71 127.701C413.229 128.849 412.788 130.17 411.724 130.652C410.659 131.132 409.376 130.592 408.857 129.444Z" fill="black"/>
<path d="M401.956 128.262C401.437 127.114 401.878 125.793 402.943 125.311C404.006 124.83 405.291 125.37 405.81 126.518C406.329 127.666 405.887 128.987 404.824 129.469C403.759 129.951 402.476 129.41 401.956 128.262Z" fill="black"/>
<path d="M395.046 127.079C394.527 125.931 394.969 124.61 396.032 124.128C397.097 123.648 398.38 124.188 398.899 125.336C399.419 126.484 398.978 127.806 397.913 128.287C396.85 128.769 395.566 128.227 395.046 127.079Z" fill="black"/>
<path d="M388.138 125.897C387.618 124.749 388.06 123.428 389.124 122.947C390.188 122.466 391.471 123.006 391.991 124.154C392.511 125.302 392.069 126.623 391.005 127.105C389.941 127.587 388.657 127.045 388.138 125.897Z" fill="black"/>
<path d="M381.228 124.715C380.709 123.567 381.15 122.246 382.214 121.765C383.278 121.284 384.562 121.824 385.081 122.972C385.6 124.121 385.16 125.442 384.095 125.923C383.031 126.405 381.747 125.864 381.228 124.715Z" fill="black"/>
<path d="M464.146 146.428C463.627 145.28 464.067 143.959 465.132 143.477C466.196 142.996 467.48 143.537 467.999 144.685C468.518 145.834 468.077 147.154 467.013 147.635C465.948 148.117 464.665 147.576 464.146 146.428Z" fill="black"/>
<path d="M457.236 145.246C456.716 144.098 457.158 142.777 458.222 142.296C459.286 141.814 460.57 142.355 461.089 143.504C461.608 144.652 461.167 145.973 460.103 146.453C459.039 146.935 457.755 146.395 457.236 145.246Z" fill="black"/>
<path d="M450.328 144.065C449.807 142.916 450.249 141.595 451.314 141.114C452.377 140.632 453.661 141.173 454.181 142.322C454.7 143.47 454.258 144.791 453.195 145.272C452.13 145.753 450.847 145.213 450.328 144.065Z" fill="black"/>
<path d="M443.417 142.883C442.898 141.734 443.339 140.413 444.403 139.932C445.467 139.45 446.75 139.991 447.271 141.14C447.79 142.288 447.348 143.609 446.285 144.091C445.22 144.571 443.937 144.031 443.417 142.883Z" fill="black"/>
<path d="M436.518 141.7C435.999 140.551 436.441 139.23 437.504 138.75C438.569 138.268 439.852 138.808 440.372 139.957C440.892 141.105 440.45 142.426 439.385 142.908C438.322 143.389 437.039 142.848 436.518 141.7Z" fill="black"/>
<path d="M429.609 140.518C429.089 139.37 429.53 138.049 430.595 137.567C431.658 137.087 432.942 137.627 433.462 138.775C433.981 139.923 433.54 141.244 432.476 141.726C431.411 142.208 430.128 141.666 429.609 140.518Z" fill="black"/>
<path d="M422.689 139.34C422.17 138.192 422.611 136.871 423.675 136.389C424.738 135.909 426.023 136.449 426.542 137.597C427.061 138.746 426.62 140.067 425.556 140.548C424.492 141.03 423.208 140.489 422.689 139.34Z" fill="black"/>
<path d="M415.78 138.159C415.261 137.01 415.703 135.689 416.766 135.208C417.831 134.727 419.114 135.267 419.633 136.416C420.154 137.564 419.712 138.885 418.647 139.367C417.584 139.848 416.3 139.307 415.78 138.159Z" fill="black"/>
<path d="M408.87 136.977C408.35 135.828 408.792 134.507 409.857 134.026C410.92 133.545 412.204 134.085 412.724 135.234C413.243 136.382 412.801 137.703 411.738 138.185C410.673 138.666 409.39 138.125 408.87 136.977Z" fill="black"/>
<path d="M401.972 135.795C401.453 134.647 401.894 133.325 402.958 132.844C404.023 132.363 405.306 132.904 405.825 134.052C406.344 135.2 405.904 136.521 404.839 137.003C403.776 137.484 402.491 136.943 401.972 135.795Z" fill="black"/>
<path d="M395.062 134.613C394.542 133.465 394.984 132.144 396.048 131.662C397.112 131.18 398.395 131.722 398.915 132.87C399.435 134.018 398.993 135.339 397.928 135.821C396.865 136.301 395.582 135.761 395.062 134.613Z" fill="black"/>
<path d="M388.152 133.431C387.633 132.283 388.073 130.962 389.138 130.48C390.201 129.999 391.486 130.54 392.005 131.688C392.524 132.836 392.083 134.156 391.019 134.638C389.954 135.12 388.671 134.579 388.152 133.431Z" fill="black"/>
<path d="M381.232 132.253C380.713 131.105 381.154 129.784 382.218 129.302C383.283 128.821 384.566 129.362 385.085 130.51C385.604 131.659 385.163 132.98 384.099 133.461C383.035 133.943 381.751 133.402 381.232 132.253Z" fill="black"/>
<path d="M469.851 153.688C469.335 152.542 469.777 151.224 470.841 150.744C471.903 150.266 473.183 150.807 473.701 151.955C474.217 153.102 473.774 154.419 472.711 154.898C471.649 155.377 470.369 154.835 469.851 153.688Z" fill="black"/>
<path d="M457.255 152.799C456.736 151.651 457.178 150.331 458.241 149.849C459.306 149.368 460.589 149.908 461.108 151.056C461.628 152.204 461.187 153.526 460.122 154.007C459.059 154.489 457.775 153.947 457.255 152.799Z" fill="black"/>
<path d="M450.347 151.618C449.828 150.47 450.269 149.149 451.333 148.667C452.397 148.186 453.68 148.727 454.2 149.874C454.72 151.022 454.278 152.345 453.214 152.825C452.15 153.307 450.866 152.765 450.347 151.618Z" fill="black"/>
<path d="M443.437 150.435C442.917 149.287 443.359 147.966 444.423 147.485C445.486 147.004 446.771 147.544 447.29 148.693C447.809 149.841 447.369 151.162 446.304 151.643C445.24 152.125 443.956 151.584 443.437 150.435Z" fill="black"/>
<path d="M436.527 149.254C436.007 148.105 436.449 146.784 437.513 146.303C438.577 145.821 439.861 146.363 440.38 147.511C440.899 148.659 440.458 149.98 439.394 150.462C438.33 150.942 437.047 150.402 436.527 149.254Z" fill="black"/>
<path d="M429.619 148.076C429.099 146.928 429.54 145.606 430.605 145.126C431.668 144.644 432.952 145.185 433.472 146.333C433.991 147.481 433.549 148.802 432.486 149.284C431.421 149.765 430.138 149.224 429.619 148.076Z" fill="black"/>
<path d="M422.708 146.894C422.189 145.746 422.631 144.425 423.694 143.943C424.759 143.462 426.042 144.003 426.562 145.151C427.081 146.3 426.639 147.621 425.576 148.102C424.512 148.583 423.228 148.043 422.708 146.894Z" fill="black"/>
<path d="M415.798 145.712C415.278 144.564 415.72 143.243 416.784 142.761C417.848 142.28 419.132 142.821 419.651 143.969C420.171 145.118 419.729 146.439 418.665 146.92C417.601 147.402 416.318 146.861 415.798 145.712Z" fill="black"/>
<path d="M408.89 144.53C408.371 143.382 408.812 142.061 409.876 141.579C410.94 141.098 412.224 141.639 412.743 142.787C413.263 143.936 412.821 145.257 411.757 145.738C410.693 146.22 409.409 145.679 408.89 144.53Z" fill="black"/>
<path d="M401.98 143.349C401.46 142.2 401.902 140.879 402.966 140.398C404.03 139.916 405.314 140.457 405.833 141.606C406.352 142.754 405.911 144.075 404.847 144.555C403.783 145.037 402.5 144.497 401.98 143.349Z" fill="black"/>
<path d="M395.082 142.167C394.562 141.019 395.003 139.697 396.067 139.216C397.131 138.734 398.415 139.276 398.934 140.424C399.454 141.572 399.013 142.893 397.948 143.374C396.884 143.855 395.601 143.315 395.082 142.167Z" fill="black"/>
<path d="M388.162 140.989C387.641 139.841 388.083 138.52 389.148 138.038C390.211 137.557 391.495 138.098 392.015 139.246C392.534 140.395 392.092 141.716 391.029 142.196C389.964 142.678 388.681 142.138 388.162 140.989Z" fill="black"/>
<path d="M381.251 139.806C380.732 138.658 381.174 137.337 382.237 136.856C383.301 136.375 384.585 136.915 385.105 138.063C385.624 139.212 385.182 140.533 384.119 141.014C383.055 141.496 381.771 140.954 381.251 139.806Z" fill="black"/>
<path d="M464.179 161.515C463.66 160.366 464.101 159.045 465.165 158.564C466.23 158.083 467.513 158.623 468.032 159.772C468.551 160.92 468.111 162.241 467.046 162.723C465.983 163.204 464.699 162.663 464.179 161.515Z" fill="black"/>
<path d="M457.27 160.333C456.751 159.185 457.193 157.864 458.256 157.383C459.321 156.902 460.604 157.442 461.124 158.59C461.644 159.738 461.202 161.059 460.137 161.541C459.074 162.023 457.791 161.481 457.27 160.333Z" fill="black"/>
<path d="M450.361 159.151C449.842 158.003 450.282 156.682 451.347 156.2C452.41 155.719 453.695 156.26 454.214 157.408C454.733 158.556 454.291 159.878 453.228 160.359C452.163 160.84 450.88 160.299 450.361 159.151Z" fill="black"/>
<path d="M443.441 157.974C442.921 156.825 443.363 155.504 444.427 155.023C445.491 154.541 446.775 155.082 447.294 156.231C447.813 157.379 447.372 158.7 446.308 159.182C445.244 159.662 443.96 159.122 443.441 157.974Z" fill="black"/>
<path d="M436.532 156.792C436.013 155.644 436.454 154.322 437.518 153.841C438.583 153.359 439.866 153.901 440.385 155.049C440.906 156.197 440.464 157.518 439.399 158C438.336 158.48 437.052 157.94 436.532 156.792Z" fill="black"/>
<path d="M429.632 155.61C429.113 154.461 429.554 153.14 430.618 152.659C431.682 152.177 432.966 152.718 433.486 153.867C434.005 155.015 433.563 156.335 432.499 156.817C431.435 157.298 430.151 156.758 429.632 155.61Z" fill="black"/>
<path d="M422.724 154.428C422.205 153.28 422.646 151.959 423.71 151.477C424.775 150.996 426.058 151.537 426.577 152.685C427.096 153.834 426.656 155.155 425.591 155.635C424.527 156.117 423.243 155.576 422.724 154.428Z" fill="black"/>
<path d="M415.814 153.246C415.294 152.098 415.735 150.777 416.8 150.295C417.863 149.814 419.147 150.355 419.667 151.503C420.186 152.651 419.745 153.972 418.681 154.453C417.616 154.934 416.333 154.394 415.814 153.246Z" fill="black"/>
<path d="M408.904 152.063C408.384 150.915 408.826 149.594 409.89 149.113C410.953 148.632 412.238 149.172 412.757 150.32C413.276 151.468 412.834 152.789 411.771 153.271C410.707 153.753 409.423 153.211 408.904 152.063Z" fill="black"/>
<path d="M401.986 150.886C401.466 149.737 401.908 148.416 402.972 147.936C404.036 147.454 405.32 147.994 405.839 149.143C406.358 150.291 405.917 151.612 404.853 152.094C403.789 152.575 402.505 152.034 401.986 150.886Z" fill="black"/>
<path d="M395.085 149.705C394.565 148.556 395.007 147.235 396.071 146.754C397.135 146.272 398.418 146.812 398.939 147.961C399.458 149.109 399.016 150.43 397.953 150.912C396.888 151.393 395.605 150.853 395.085 149.705Z" fill="black"/>
<path d="M388.177 148.523C387.658 147.375 388.099 146.054 389.163 145.572C390.227 145.091 391.51 145.631 392.03 146.779C392.55 147.927 392.108 149.248 391.044 149.73C389.98 150.212 388.696 149.671 388.177 148.523Z" fill="black"/>
<path d="M381.267 147.34C380.748 146.192 381.189 144.871 382.253 144.389C383.317 143.909 384.601 144.449 385.12 145.597C385.639 146.746 385.199 148.067 384.134 148.548C383.07 149.03 381.786 148.489 381.267 147.34Z" fill="black"/>
<path d="M457.284 167.867C456.765 166.718 457.207 165.397 458.27 164.916C459.335 164.434 460.618 164.976 461.138 166.124C461.657 167.272 461.216 168.593 460.152 169.075C459.088 169.556 457.805 169.015 457.284 167.867Z" fill="black"/>
<path d="M450.367 166.689C449.847 165.541 450.288 164.22 451.353 163.738C452.416 163.257 453.701 163.798 454.22 164.946C454.739 166.095 454.297 167.416 453.234 167.897C452.169 168.379 450.886 167.838 450.367 166.689Z" fill="black"/>
<path d="M443.456 165.507C442.937 164.359 443.379 163.038 444.442 162.556C445.507 162.075 446.79 162.616 447.31 163.764C447.829 164.913 447.388 166.234 446.323 166.714C445.26 167.196 443.975 166.656 443.456 165.507Z" fill="black"/>
<path d="M436.546 164.324C436.027 163.176 436.469 161.855 437.532 161.373C438.597 160.893 439.88 161.433 440.399 162.581C440.919 163.73 440.478 165.051 439.413 165.532C438.35 166.014 437.066 165.473 436.546 164.324Z" fill="black"/>
<path d="M429.648 163.143C429.129 161.994 429.57 160.673 430.634 160.193C431.699 159.711 432.982 160.251 433.501 161.4C434.02 162.548 433.579 163.869 432.515 164.351C431.451 164.832 430.167 164.291 429.648 163.143Z" fill="black"/>
<path d="M422.737 161.961C422.218 160.813 422.66 159.491 423.723 159.011C424.788 158.529 426.071 159.07 426.59 160.218C427.111 161.366 426.669 162.687 425.604 163.169C424.541 163.65 423.257 163.109 422.737 161.961Z" fill="black"/>
<path d="M415.828 160.779C415.308 159.63 415.749 158.309 416.813 157.828C417.878 157.346 419.161 157.887 419.68 159.036C420.2 160.184 419.759 161.505 418.695 161.987C417.631 162.468 416.347 161.927 415.828 160.779Z" fill="black"/>
<path d="M408.91 159.602C408.39 158.454 408.832 157.133 409.896 156.651C410.959 156.17 412.244 156.711 412.763 157.859C413.282 159.007 412.84 160.328 411.777 160.809C410.713 161.291 409.429 160.751 408.91 159.602Z" fill="black"/>
<path d="M401.999 158.419C401.48 157.271 401.921 155.95 402.985 155.468C404.049 154.988 405.333 155.528 405.852 156.676C406.372 157.825 405.931 159.146 404.866 159.627C403.802 160.109 402.519 159.568 401.999 158.419Z" fill="black"/>
<path d="M395.101 157.238C394.581 156.089 395.023 154.768 396.087 154.288C397.151 153.806 398.434 154.346 398.954 155.495C399.474 156.643 399.032 157.964 397.968 158.446C396.904 158.927 395.621 158.386 395.101 157.238Z" fill="black"/>
<path d="M388.191 156.056C387.672 154.907 388.112 153.586 389.177 153.105C390.24 152.623 391.525 153.164 392.044 154.313C392.563 155.461 392.122 156.782 391.058 157.264C389.993 157.744 388.71 157.204 388.191 156.056Z" fill="black"/>
<path d="M381.28 154.874C380.761 153.726 381.203 152.404 382.266 151.923C383.331 151.441 384.614 151.983 385.133 153.131C385.654 154.279 385.212 155.6 384.147 156.082C383.084 156.562 381.8 156.022 381.28 154.874Z" fill="black"/>
<path d="M457.29 175.404C456.771 174.255 457.212 172.934 458.276 172.454C459.34 171.972 460.624 172.513 461.143 173.661C461.663 174.809 461.222 176.13 460.157 176.612C459.093 177.093 457.81 176.552 457.29 175.404Z" fill="black"/>
<path d="M450.38 174.222C449.861 173.074 450.302 171.753 451.366 171.271C452.43 170.791 453.714 171.331 454.234 172.479C454.753 173.628 454.311 174.949 453.247 175.43C452.183 175.912 450.899 175.37 450.38 174.222Z" fill="black"/>
<path d="M443.47 173.041C442.951 171.893 443.393 170.571 444.456 170.09C445.52 169.609 446.804 170.149 447.323 171.297C447.843 172.445 447.401 173.767 446.337 174.248C445.274 174.73 443.989 174.188 443.47 173.041Z" fill="black"/>
<path d="M436.561 171.858C436.042 170.71 436.484 169.389 437.547 168.907C438.612 168.426 439.895 168.967 440.415 170.115C440.935 171.264 440.493 172.585 439.428 173.066C438.365 173.548 437.082 173.007 436.561 171.858Z" fill="black"/>
<path d="M429.652 170.676C429.133 169.528 429.573 168.207 430.638 167.725C431.701 167.244 432.986 167.785 433.505 168.933C434.024 170.081 433.583 171.403 432.519 171.883C431.454 172.365 430.171 171.825 429.652 170.676Z" fill="black"/>
<path d="M422.743 169.499C422.224 168.351 422.666 167.03 423.729 166.548C424.794 166.068 426.077 166.608 426.597 167.756C427.116 168.904 426.675 170.225 425.611 170.707C424.547 171.189 423.263 170.647 422.743 169.499Z" fill="black"/>
<path d="M415.833 168.317C415.313 167.169 415.755 165.848 416.819 165.366C417.883 164.885 419.166 165.426 419.687 166.574C420.206 167.723 419.764 169.044 418.701 169.524C417.636 170.006 416.353 169.466 415.833 168.317Z" fill="black"/>
<path d="M408.923 167.135C408.404 165.987 408.846 164.666 409.909 164.184C410.974 163.703 412.257 164.244 412.776 165.392C413.296 166.541 412.855 167.862 411.79 168.343C410.727 168.824 409.442 168.283 408.923 167.135Z" fill="black"/>
<path d="M402.015 165.954C401.495 164.805 401.937 163.484 403 163.003C404.065 162.521 405.348 163.062 405.868 164.211C406.388 165.359 405.946 166.68 404.882 167.162C403.818 167.642 402.535 167.102 402.015 165.954Z" fill="black"/>
<path d="M395.115 164.772C394.594 163.623 395.036 162.302 396.101 161.821C397.164 161.339 398.448 161.879 398.968 163.028C399.487 164.176 399.045 165.497 397.982 165.979C396.917 166.46 395.634 165.919 395.115 164.772Z" fill="black"/>
<path d="M388.206 163.59C387.687 162.441 388.129 161.12 389.192 160.639C390.257 160.157 391.54 160.698 392.06 161.847C392.579 162.994 392.138 164.316 391.073 164.797C390.01 165.278 388.725 164.738 388.206 163.59Z" fill="black"/>
<path d="M381.296 162.408C380.776 161.26 381.218 159.938 382.282 159.457C383.346 158.975 384.63 159.517 385.149 160.665C385.669 161.813 385.227 163.134 384.163 163.615C383.099 164.096 381.816 163.556 381.296 162.408Z" fill="black"/>
<path d="M450.4 181.776C449.88 180.627 450.322 179.306 451.386 178.825C452.45 178.344 453.734 178.885 454.253 180.033C454.772 181.181 454.331 182.502 453.267 182.984C452.203 183.465 450.919 182.924 450.4 181.776Z" fill="black"/>
<path d="M443.492 180.594C442.971 179.446 443.413 178.125 444.478 177.643C445.541 177.162 446.825 177.703 447.345 178.851C447.864 180 447.422 181.321 446.359 181.801C445.294 182.283 444.011 181.742 443.492 180.594Z" fill="black"/>
<path d="M436.581 179.412C436.062 178.264 436.504 176.943 437.568 176.461C438.631 175.98 439.916 176.521 440.435 177.669C440.954 178.817 440.512 180.138 439.449 180.62C438.385 181.1 437.101 180.56 436.581 179.412Z" fill="black"/>
<path d="M429.661 178.235C429.142 177.086 429.584 175.765 430.647 175.284C431.712 174.802 432.995 175.343 433.515 176.492C434.034 177.64 433.593 178.961 432.529 179.443C431.465 179.923 430.181 179.383 429.661 178.235Z" fill="black"/>
<path d="M422.761 177.052C422.242 175.903 422.683 174.582 423.747 174.102C424.812 173.62 426.095 174.16 426.614 175.309C427.133 176.457 426.693 177.778 425.628 178.26C424.565 178.741 423.281 178.2 422.761 177.052Z" fill="black"/>
<path d="M415.853 175.871C415.334 174.723 415.774 173.402 416.839 172.92C417.903 172.438 419.186 172.98 419.706 174.128C420.225 175.276 419.784 176.596 418.72 177.078C417.656 177.559 416.372 177.019 415.853 175.871Z" fill="black"/>
<path d="M408.943 174.689C408.423 173.541 408.865 172.219 409.929 171.738C410.993 171.256 412.277 171.798 412.796 172.946C413.315 174.094 412.874 175.415 411.81 175.896C410.746 176.377 409.462 175.837 408.943 174.689Z" fill="black"/>
<path d="M402.033 173.506C401.513 172.358 401.954 171.036 403.019 170.556C404.083 170.074 405.366 170.615 405.885 171.763C406.405 172.911 405.964 174.232 404.9 174.714C403.836 175.195 402.552 174.654 402.033 173.506Z" fill="black"/>
<path d="M395.124 172.324C394.605 171.176 395.047 169.855 396.11 169.374C397.175 168.893 398.458 169.433 398.978 170.581C399.497 171.73 399.056 173.051 397.991 173.532C396.928 174.014 395.643 173.473 395.124 172.324Z" fill="black"/>
<path d="M388.216 171.146C387.696 169.998 388.138 168.677 389.202 168.197C390.266 167.715 391.55 168.255 392.069 169.404C392.589 170.552 392.147 171.873 391.083 172.354C390.019 172.836 388.736 172.295 388.216 171.146Z" fill="black"/>
<path d="M381.306 169.965C380.787 168.816 381.228 167.495 382.292 167.014C383.357 166.532 384.64 167.073 385.159 168.222C385.678 169.37 385.238 170.691 384.173 171.173C383.11 171.653 381.826 171.113 381.306 169.965Z" fill="black"/>
<path d="M443.506 188.128C442.985 186.979 443.427 185.658 444.492 185.177C445.555 184.695 446.839 185.237 447.358 186.385C447.878 187.532 447.436 188.853 446.372 189.335C445.308 189.816 444.025 189.276 443.506 188.128Z" fill="black"/>
<path d="M436.585 186.949C436.066 185.802 436.507 184.481 437.571 183.999C438.635 183.518 439.919 184.058 440.439 185.206C440.958 186.355 440.516 187.676 439.453 188.157C438.388 188.639 437.105 188.098 436.585 186.949Z" fill="black"/>
<path d="M429.675 185.768C429.156 184.62 429.598 183.299 430.661 182.817C431.726 182.336 433.009 182.877 433.528 184.026C434.048 185.173 433.607 186.495 432.542 186.975C431.479 187.457 430.195 186.917 429.675 185.768Z" fill="black"/>
<path d="M422.777 184.585C422.257 183.437 422.699 182.116 423.762 181.636C424.827 181.154 426.11 181.694 426.629 182.842C427.15 183.991 426.708 185.312 425.643 185.793C424.58 186.275 423.296 185.734 422.777 184.585Z" fill="black"/>
<path d="M415.867 183.404C415.347 182.255 415.788 180.934 416.853 180.454C417.916 179.972 419.201 180.513 419.72 181.661C420.239 182.809 419.797 184.13 418.734 184.612C417.669 185.093 416.386 184.552 415.867 183.404Z" fill="black"/>
<path d="M408.958 182.222C408.439 181.073 408.88 179.752 409.944 179.271C411.008 178.789 412.292 179.33 412.811 180.479C413.331 181.627 412.89 182.948 411.825 183.43C410.761 183.91 409.478 183.37 408.958 182.222Z" fill="black"/>
<path d="M402.048 181.04C401.528 179.892 401.97 178.571 403.034 178.089C404.098 177.607 405.381 178.149 405.902 179.297C406.421 180.445 405.979 181.766 404.915 182.248C403.851 182.729 402.567 182.188 402.048 181.04Z" fill="black"/>
<path d="M395.128 179.862C394.609 178.714 395.05 177.393 396.114 176.911C397.178 176.43 398.462 176.971 398.982 178.119C399.501 179.268 399.059 180.589 397.996 181.07C396.931 181.552 395.648 181.011 395.128 179.862Z" fill="black"/>
<path d="M388.23 178.681C387.711 177.532 388.152 176.211 389.216 175.73C390.28 175.249 391.564 175.789 392.083 176.938C392.602 178.086 392.161 179.407 391.097 179.889C390.034 180.37 388.749 179.829 388.23 178.681Z" fill="black"/>
<path d="M381.319 177.499C380.8 176.351 381.242 175.029 382.305 174.548C383.37 174.066 384.653 174.608 385.172 175.756C385.693 176.904 385.251 178.225 384.186 178.706C383.123 179.187 381.839 178.647 381.319 177.499Z" fill="black"/>
<path d="M429.691 193.301C429.171 192.153 429.613 190.832 430.677 190.35C431.741 189.869 433.025 190.41 433.544 191.558C434.063 192.707 433.622 194.028 432.558 194.509C431.494 194.99 430.21 194.45 429.691 193.301Z" fill="black"/>
<path d="M422.792 192.119C422.272 190.971 422.714 189.65 423.778 189.168C424.842 188.687 426.125 189.228 426.646 190.376C427.165 191.524 426.723 192.846 425.66 193.327C424.595 193.809 423.312 193.267 422.792 192.119Z" fill="black"/>
<path d="M415.882 190.937C415.363 189.789 415.805 188.468 416.868 187.986C417.933 187.506 419.216 188.046 419.736 189.195C420.255 190.343 419.813 191.664 418.749 192.145C417.686 192.627 416.401 192.086 415.882 190.937Z" fill="black"/>
<path d="M408.962 189.76C408.443 188.611 408.885 187.29 409.948 186.809C411.013 186.327 412.296 186.868 412.815 188.017C413.335 189.164 412.894 190.486 411.829 190.967C410.766 191.448 409.481 190.908 408.962 189.76Z" fill="black"/>
<path d="M402.054 188.578C401.534 187.43 401.976 186.109 403.04 185.627C404.104 185.146 405.387 185.687 405.907 186.835C406.427 187.983 405.985 189.305 404.921 189.785C403.857 190.267 402.573 189.726 402.054 188.578Z" fill="black"/>
<path d="M395.144 187.396C394.625 186.248 395.066 184.927 396.13 184.445C397.194 183.964 398.478 184.505 398.997 185.653C399.516 186.802 399.075 188.123 398.011 188.604C396.948 189.085 395.663 188.544 395.144 187.396Z" fill="black"/>
<path d="M374.265 93.3803C373.746 92.2319 374.187 90.9108 375.251 90.4293C376.315 89.9478 377.598 90.489 378.118 91.6373C378.638 92.7857 378.196 94.1067 377.132 94.5883C376.068 95.0688 374.784 94.5286 374.265 93.3803Z" fill="black"/>
<path d="M374.284 100.922C373.765 99.774 374.207 98.4529 375.27 97.9724C376.335 97.4909 377.618 98.0311 378.138 99.1794C378.657 100.328 378.216 101.649 377.152 102.13C376.088 102.612 374.804 102.071 374.284 100.922Z" fill="black"/>
<path d="M367.374 99.7407C366.855 98.5924 367.296 97.2723 368.36 96.7908C369.424 96.3093 370.708 96.8494 371.227 97.9978C371.747 99.1461 371.306 100.467 370.241 100.949C369.177 101.43 367.894 100.889 367.374 99.7407Z" fill="black"/>
<path d="M374.298 108.467C373.779 107.318 374.221 105.997 375.284 105.516C376.349 105.034 377.632 105.575 378.152 106.724C378.671 107.872 378.229 109.193 377.165 109.675C376.102 110.155 374.817 109.615 374.298 108.467Z" fill="black"/>
<path d="M367.389 107.285C366.87 106.137 367.312 104.816 368.375 104.334C369.44 103.853 370.723 104.394 371.243 105.542C371.763 106.69 371.321 108.012 370.257 108.493C369.193 108.974 367.91 108.433 367.389 107.285Z" fill="black"/>
<path d="M374.302 115.999C373.783 114.851 374.224 113.53 375.288 113.048C376.353 112.568 377.636 113.108 378.155 114.257C378.674 115.405 378.234 116.726 377.169 117.207C376.106 117.689 374.822 117.148 374.302 115.999Z" fill="black"/>
<path d="M367.403 114.818C366.884 113.669 367.326 112.348 368.39 111.868C369.454 111.386 370.737 111.927 371.256 113.075C371.777 114.223 371.335 115.544 370.27 116.026C369.207 116.507 367.923 115.966 367.403 114.818Z" fill="black"/>
<path d="M360.486 113.64C359.967 112.492 360.407 111.171 361.472 110.69C362.535 110.209 363.82 110.749 364.339 111.897C364.858 113.046 364.416 114.367 363.353 114.848C362.288 115.33 361.005 114.788 360.486 113.64Z" fill="black"/>
<path d="M374.308 123.538C373.789 122.389 374.23 121.068 375.294 120.588C376.359 120.106 377.642 120.646 378.161 121.795C378.68 122.943 378.24 124.264 377.175 124.746C376.111 125.227 374.827 124.686 374.308 123.538Z" fill="black"/>
<path d="M367.41 122.356C366.889 121.207 367.331 119.886 368.396 119.405C369.459 118.923 370.743 119.465 371.263 120.613C371.782 121.761 371.34 123.082 370.277 123.564C369.212 124.044 367.929 123.504 367.41 122.356Z" fill="black"/>
<path d="M360.499 121.174C359.98 120.026 360.421 118.705 361.485 118.223C362.549 117.743 363.833 118.283 364.353 119.431C364.872 120.58 364.43 121.901 363.367 122.382C362.302 122.864 361.019 122.323 360.499 121.174Z" fill="black"/>
<path d="M374.323 131.072C373.804 129.923 374.246 128.602 375.309 128.121C376.374 127.639 377.657 128.18 378.176 129.329C378.697 130.477 378.255 131.798 377.19 132.279C376.127 132.76 374.843 132.22 374.323 131.072Z" fill="black"/>
<path d="M367.424 129.89C366.903 128.741 367.345 127.42 368.41 126.939C369.473 126.457 370.757 126.998 371.276 128.147C371.796 129.295 371.354 130.616 370.291 131.097C369.226 131.578 367.943 131.038 367.424 129.89Z" fill="black"/>
<path d="M360.515 128.708C359.996 127.56 360.438 126.238 361.501 125.757C362.565 125.275 363.849 125.817 364.368 126.965C364.888 128.113 364.446 129.434 363.382 129.916C362.318 130.396 361.034 129.856 360.515 128.708Z" fill="black"/>
<path d="M374.343 138.624C373.823 137.476 374.265 136.155 375.329 135.674C376.393 135.193 377.677 135.733 378.196 136.881C378.716 138.029 378.274 139.35 377.21 139.832C376.146 140.314 374.863 139.772 374.343 138.624Z" fill="black"/>
<path d="M367.433 137.443C366.914 136.295 367.354 134.974 368.419 134.492C369.483 134.011 370.767 134.552 371.286 135.7C371.806 136.849 371.364 138.169 370.3 138.65C369.236 139.132 367.952 138.592 367.433 137.443Z" fill="black"/>
<path d="M360.534 136.261C360.015 135.112 360.457 133.791 361.52 133.31C362.585 132.829 363.868 133.369 364.388 134.518C364.907 135.666 364.466 136.987 363.402 137.469C362.338 137.95 361.055 137.409 360.534 136.261Z" fill="black"/>
<path d="M374.357 146.158C373.837 145.01 374.278 143.689 375.343 143.208C376.406 142.727 377.69 143.267 378.21 144.415C378.729 145.564 378.288 146.885 377.224 147.366C376.159 147.848 374.876 147.307 374.357 146.158Z" fill="black"/>
<path d="M367.447 144.976C366.927 143.828 367.369 142.507 368.433 142.026C369.496 141.544 370.781 142.085 371.3 143.234C371.819 144.382 371.377 145.703 370.314 146.184C369.25 146.665 367.966 146.125 367.447 144.976Z" fill="black"/>
<path d="M360.538 143.799C360.019 142.65 360.46 141.329 361.524 140.848C362.589 140.366 363.872 140.907 364.391 142.056C364.911 143.204 364.47 144.525 363.405 145.007C362.341 145.487 361.058 144.947 360.538 143.799Z" fill="black"/>
<path d="M374.372 153.692C373.853 152.544 374.294 151.223 375.359 150.741C376.422 150.26 377.707 150.801 378.226 151.949C378.745 153.098 378.303 154.419 377.24 154.9C376.175 155.382 374.892 154.841 374.372 153.692Z" fill="black"/>
<path d="M367.453 152.514C366.933 151.366 367.374 150.045 368.439 149.563C369.502 149.082 370.787 149.623 371.306 150.771C371.825 151.92 371.383 153.24 370.32 153.721C369.255 154.203 367.972 153.663 367.453 152.514Z" fill="black"/>
<path d="M374.376 161.229C373.856 160.081 374.298 158.76 375.362 158.278C376.426 157.798 377.709 158.338 378.23 159.486C378.749 160.634 378.307 161.955 377.244 162.437C376.179 162.918 374.896 162.377 374.376 161.229Z" fill="black"/>
<path d="M367.468 160.047C366.949 158.899 367.391 157.578 368.454 157.097C369.519 156.616 370.802 157.156 371.321 158.304C371.841 159.453 371.399 160.774 370.335 161.255C369.272 161.737 367.987 161.196 367.468 160.047Z" fill="black"/>
<path d="M374.396 168.783C373.877 167.635 374.317 166.313 375.382 165.832C376.446 165.35 377.729 165.892 378.249 167.04C378.768 168.188 378.327 169.509 377.263 169.991C376.198 170.472 374.915 169.931 374.396 168.783Z" fill="black"/>
<path d="M459.237 98.8677C457.302 97.0693 456.965 94.2859 458.484 92.6518C460.003 91.0167 462.803 91.1496 464.738 92.948C466.674 94.7465 467.012 97.5299 465.492 99.165C463.973 100.799 461.173 100.666 459.237 98.8677Z" fill="white" stroke="black" stroke-miterlimit="10"/>
<path d="M460.922 97.0242C460.726 96.4998 460.673 95.9324 460.771 95.3818C460.867 94.8301 461.109 94.3151 461.472 93.889C461.834 93.463 462.305 93.1406 462.834 92.9574C463.363 92.7742 463.93 92.7354 464.48 92.8453C465.028 92.9542 465.538 93.2096 465.955 93.5823C466.372 93.955 466.683 94.4323 466.854 94.9651C467.024 95.498 467.051 96.0664 466.927 96.6128C466.805 97.1592 466.539 97.6628 466.156 98.071C465.278 98.4395 464.311 98.5358 463.378 98.3495C462.446 98.1631 461.589 97.7015 460.922 97.0242Z" fill="black" stroke="black" stroke-miterlimit="10"/>
<path d="M366.154 80.8009C364.225 79.0043 363.893 76.2272 365.409 74.5982C366.927 72.9691 369.721 73.1049 371.649 74.9015C373.579 76.6982 373.912 79.4753 372.394 81.1043C370.877 82.7335 368.083 82.5976 366.154 80.8009Z" fill="white" stroke="black" stroke-width="0.997647" stroke-miterlimit="10"/>
<path d="M361.601 80.2742C361.405 79.75 361.353 79.1829 361.45 78.6317C361.547 78.0804 361.789 77.5651 362.152 77.1389C362.515 76.7128 362.985 76.3913 363.514 76.2078C364.042 76.0243 364.61 75.9854 365.159 76.0951C365.708 76.205 366.218 76.4593 366.635 76.8321C367.052 77.2049 367.363 77.6823 367.534 78.2152C367.704 78.7482 367.73 79.3171 367.607 79.8631C367.484 80.4091 367.218 80.9125 366.835 81.321C365.959 81.6921 364.991 81.7906 364.057 81.604C363.123 81.4172 362.268 80.9539 361.601 80.2742Z" fill="black" stroke="black" stroke-miterlimit="10"/>
<path d="M459.237 197.367C457.302 195.569 456.965 192.785 458.484 191.151C460.003 189.516 462.804 189.649 464.738 191.448C466.674 193.246 467.012 196.029 465.493 197.664C463.973 199.299 461.173 199.166 459.237 197.367Z" fill="white" stroke="black" stroke-miterlimit="10"/>
<path d="M460.922 195.517C460.726 194.993 460.673 194.427 460.771 193.875C460.867 193.323 461.109 192.808 461.472 192.382C461.834 191.956 462.305 191.635 462.834 191.452C463.363 191.267 463.93 191.229 464.48 191.338C465.028 191.448 465.538 191.703 465.955 192.075C466.372 192.448 466.683 192.925 466.854 193.458C467.024 193.991 467.051 194.561 466.927 195.106C466.805 195.652 466.539 196.156 466.156 196.564C465.278 196.934 464.311 197.032 463.378 196.845C462.445 196.658 461.589 196.196 460.922 195.517Z" fill="black" stroke="black" stroke-miterlimit="10"/>
<path d="M359.925 180.611C357.99 178.813 357.653 176.029 359.172 174.394C360.691 172.76 363.491 172.892 365.426 174.69C367.362 176.489 367.699 179.272 366.18 180.907C364.661 182.542 361.861 182.409 359.925 180.611Z" fill="white" stroke="black" stroke-miterlimit="10"/>
<path d="M361.602 178.77C361.406 178.245 361.354 177.678 361.45 177.127C361.547 176.575 361.789 176.06 362.152 175.634C362.514 175.208 362.985 174.886 363.513 174.703C364.043 174.52 364.61 174.481 365.159 174.59C365.708 174.7 366.217 174.954 366.635 175.327C367.052 175.699 367.362 176.178 367.534 176.711C367.705 177.243 367.73 177.812 367.607 178.358C367.485 178.905 367.218 179.407 366.836 179.816C365.96 180.187 364.991 180.285 364.057 180.099C363.124 179.913 362.268 179.449 361.602 178.77Z" fill="black" stroke="black" stroke-miterlimit="10"/>
<path d="M364.747 234.449C357.365 227.744 355.903 217.33 361.481 211.188C367.059 205.048 377.565 205.505 384.947 212.211C392.33 218.916 393.792 229.33 388.213 235.471C382.635 241.613 372.129 241.154 364.747 234.449Z" stroke="black" stroke-miterlimit="10"/>
<path d="M357.602 220.401L362.648 214.843C367.222 209.807 375.837 210.174 381.898 215.68C387.959 221.186 389.142 229.718 384.568 234.753L379.522 240.311L357.602 220.401Z" fill="white"/>
<path d="M381.898 215.669L371.064 225.803" stroke="#634AFF" stroke-miterlimit="10"/>
<path d="M383.154 216.956C388.084 222.431 388.807 230.094 384.567 234.752L379.521 240.311L369.127 230.89L383.154 216.956Z" fill="#EBE9E9"/>
<path d="M357.602 220.401L362.648 214.843C367.222 209.807 375.837 210.174 381.898 215.68C387.959 221.186 389.142 229.718 384.568 234.753L379.522 240.311L357.602 220.401Z" stroke="black" stroke-miterlimit="10"/>
<path d="M360.313 239.338C354.257 233.838 353.057 225.295 357.633 220.259C362.207 215.221 370.826 215.597 376.881 221.097C382.936 226.598 384.137 235.14 379.561 240.177C374.986 245.214 366.368 244.838 360.313 239.338Z" fill="white" stroke="black" stroke-miterlimit="10"/>
<path d="M358.9 224.819C358.343 224.313 358.233 223.529 358.653 223.066C359.073 222.605 359.864 222.639 360.42 223.145C360.977 223.65 361.087 224.434 360.667 224.897C360.247 225.359 359.456 225.324 358.9 224.819Z" fill="black"/>
<path d="M462.828 225.592V252.401" stroke="black" stroke-miterlimit="10" stroke-linecap="round"/>
<path d="M451.238 223.645V250.454" stroke="black" stroke-miterlimit="10" stroke-linecap="round"/>
<path d="M439.65 221.698V248.507" stroke="black" stroke-miterlimit="10" stroke-linecap="round"/>
<path d="M428.053 219.74V246.549" stroke="black" stroke-miterlimit="10" stroke-linecap="round"/>
<path d="M404.875 215.846V242.655" stroke="black" stroke-miterlimit="10" stroke-linecap="round"/>
<path d="M466.124 239.63C466.132 239.875 466.084 240.119 465.985 240.343C465.885 240.567 465.737 240.766 465.549 240.924C465.362 241.082 465.141 241.195 464.903 241.255C464.666 241.316 464.418 241.322 464.177 241.273L402.886 230.962C402.351 230.853 401.868 230.566 401.516 230.149C401.164 229.73 400.965 229.206 400.95 228.659C400.94 228.414 400.986 228.171 401.085 227.946C401.183 227.722 401.331 227.523 401.517 227.365C401.705 227.207 401.924 227.093 402.162 227.032C402.399 226.972 402.647 226.966 402.886 227.016L464.177 237.327C464.714 237.434 465.2 237.719 465.554 238.137C465.907 238.556 466.108 239.082 466.124 239.63Z" fill="black"/>
<path d="M425.551 230.805L464.178 237.306C464.715 237.413 465.201 237.698 465.554 238.116C465.908 238.535 466.109 239.061 466.125 239.609C466.126 239.761 466.105 239.912 466.062 240.059C465.791 240.157 465.498 240.182 465.214 240.132L426.587 233.632C426.05 233.525 425.564 233.239 425.21 232.82C424.857 232.403 424.656 231.876 424.64 231.329C424.639 231.176 424.66 231.024 424.703 230.878C424.975 230.784 425.266 230.759 425.551 230.805Z" fill="#634AFF"/>
<path d="M466.124 239.63C466.132 239.875 466.084 240.119 465.985 240.343C465.885 240.567 465.737 240.766 465.549 240.924C465.362 241.082 465.141 241.195 464.903 241.255C464.666 241.316 464.418 241.322 464.177 241.273L402.886 230.962C402.351 230.853 401.868 230.566 401.516 230.149C401.164 229.73 400.965 229.206 400.95 228.659C400.94 228.414 400.986 228.171 401.085 227.946C401.183 227.722 401.331 227.523 401.517 227.365C401.705 227.207 401.924 227.093 402.162 227.032C402.399 226.972 402.647 226.966 402.886 227.016L464.177 237.327C464.714 237.434 465.2 237.719 465.554 238.137C465.907 238.556 466.108 239.082 466.124 239.63Z" stroke="black" stroke-miterlimit="10"/>
<path d="M414.433 234.396L419.092 229.35C421.185 227.037 425.153 227.256 427.927 229.737C430.701 232.218 431.266 236.186 429.162 238.499L424.504 243.545L414.433 234.396Z" fill="white"/>
<path d="M428.304 230.072C430.754 232.595 431.162 236.259 429.163 238.447L424.504 243.492L419.605 239.033L428.304 230.072Z" fill="#EBE9E9"/>
<path d="M414.433 234.396L419.092 229.35C421.185 227.037 425.153 227.256 427.927 229.737C430.701 232.218 431.266 236.186 429.162 238.499L424.504 243.545L414.433 234.396Z" stroke="black" stroke-miterlimit="10"/>
<path d="M415.695 242.993C412.914 240.466 412.361 236.545 414.46 234.234C416.559 231.922 420.516 232.097 423.297 234.624C426.079 237.151 426.632 241.073 424.533 243.384C422.434 245.694 418.478 245.519 415.695 242.993Z" fill="white" stroke="black" stroke-miterlimit="10"/>
</svg>
