<svg width="149" height="152" viewBox="0 0 149 152" fill="none" xmlns="http://www.w3.org/2000/svg">
<path d="M8.87547 66.6847C8.49305 66.2559 8.19025 65.756 7.96531 65.2152L4.68152 57.1085C4.1661 55.8573 4.20107 54.486 4.72633 53.2477C5.2516 52.0095 6.2442 51.0389 7.48117 50.5346L15.5985 47.2314C16.8514 46.713 18.2088 46.7286 19.4603 47.2665C20.6976 47.7885 21.666 48.7783 22.1672 50.0137L25.4511 58.1204C26.4925 60.6989 25.2333 63.6466 22.6514 64.6943L14.5341 67.9975C13.2812 68.5159 11.9096 68.4844 10.6723 67.9624C9.98017 67.6671 9.35704 67.2248 8.87547 66.6847ZM19.7761 49.8647C19.4787 49.5312 19.1016 49.2686 18.6892 49.0946C17.9387 48.7659 17.1086 48.7647 16.3353 49.0836L8.218 52.3868C7.46059 52.6915 6.86786 53.2771 6.53713 54.0282C6.2064 54.7793 6.20312 55.6092 6.506 56.3656L9.78981 64.4723C10.0927 65.2287 10.6769 65.8198 11.4274 66.1485C12.178 66.4772 13.008 66.4784 13.7813 66.1595L21.8986 62.8563C23.4754 62.2202 24.2288 60.4363 23.5965 58.8616L20.3127 50.755C20.1816 50.4156 19.9868 50.1331 19.7602 49.8789L19.7761 49.8647Z" fill="#624AFF"/>
<path d="M65.6185 93.3421C63.4373 90.896 62.6026 87.3632 63.7484 84.0319L69.2319 68.2215C70.0647 65.8536 71.7455 63.9556 73.9982 62.8594C76.2509 61.7631 78.7959 61.6037 81.1624 62.4304L96.9636 67.8725C101.861 69.5502 104.447 74.8863 102.756 79.7868L97.2872 95.613C96.4543 97.981 94.7735 99.8789 92.5208 100.975C90.2681 102.071 87.7231 102.231 85.3566 101.404L69.5554 95.962C67.9872 95.4215 66.6666 94.5176 65.6326 93.358L65.6185 93.3421ZM98.4677 72.6048C97.7878 71.8423 96.9168 71.2503 95.8955 70.9064L80.0944 65.4643C78.5403 64.9397 76.8749 65.0275 75.4132 65.7606C73.9374 66.4778 72.8227 67.7284 72.294 69.2833L66.8247 85.1096C65.7019 88.3064 67.4286 91.8136 70.6093 92.9123L86.4264 98.3401C87.9805 98.8648 89.6459 98.7769 91.1076 98.0438C92.5834 97.3266 93.698 96.0761 94.2268 94.5211L99.696 78.6949C100.442 76.5183 99.8982 74.2091 98.4677 72.6048Z" fill="#624AFF"/>
<path d="M66.0887 130.93C67.0735 127.771 69.2232 125.598 71.9911 124.983C74.851 124.343 77.8353 125.446 80.19 128.022C81.3532 129.295 82.6772 129.882 83.8081 129.643C84.8628 129.416 85.6873 128.481 86.1806 127.015L86.9904 124.525C87.9824 121.502 90.0667 119.415 92.7159 118.763C95.4112 118.099 98.2698 119.029 100.596 121.317L102.066 122.773C103.193 123.877 104.462 124.371 105.505 124.097C106.547 123.824 107.391 122.815 107.84 121.331L108.068 120.528C109.041 117.323 111.178 115.104 113.948 114.459C116.809 113.789 119.793 114.892 122.164 117.454L118.654 120.698C117.476 119.41 116.151 118.853 115.004 119.106C113.933 119.348 113.073 120.371 112.622 121.885L112.394 122.687C111.441 125.818 109.366 128.011 106.683 128.721C103.97 129.429 101.066 128.512 98.7109 126.192L97.2415 124.736C96.1138 123.632 94.8747 123.14 93.8182 123.398C92.8077 123.643 91.9832 124.578 91.5076 126L90.6977 128.49C89.6863 131.587 87.5402 133.701 84.8042 134.287C81.9602 134.912 78.9918 133.796 76.6513 131.235C75.4739 129.947 74.1499 129.359 73.0173 129.628C71.9625 129.856 71.1044 130.849 70.6252 132.331L66.0745 130.914L66.0887 130.93Z" fill="#624AFF"/>
<path d="M127.373 94.7319C124.526 91.5392 124.813 86.6356 128.014 83.7815C131.215 80.9273 136.119 81.2019 138.966 84.3946C141.813 87.5873 141.526 92.4909 138.325 95.345C135.124 98.1992 130.22 97.9246 127.373 94.7319ZM136.546 86.5529C134.888 84.6945 132.03 84.5345 130.167 86.1958C128.304 87.8572 128.137 90.7151 129.794 92.5736C131.451 94.432 134.309 94.592 136.172 92.9307C138.036 91.2693 138.203 88.4114 136.546 86.5529Z" fill="#624AFF"/>
<path d="M83.4529 91.3529L78.9676 89.8493L81.8905 81.1695C82.2389 80.1176 82.5819 79.1558 82.9339 78.3003C82.5428 78.5349 82.0756 78.7804 81.5483 79.0225L79.1699 79.9458L77.8255 76.3543L84.9872 73.6464L88.9698 74.971L83.4529 91.3529Z" fill="#624AFF"/>
</svg>
