<svg width="161" height="144" viewBox="0 0 161 144" fill="none" xmlns="http://www.w3.org/2000/svg">
<path d="M59.0778 142.16C61.956 140.775 64.0266 137.942 64.2544 134.529L65.2897 118.336C65.4346 115.916 64.6478 113.559 63.0327 111.739C61.4176 109.919 59.202 108.823 56.7794 108.657L40.5663 107.623C35.5554 107.292 31.207 111.118 30.8964 116.123L29.8611 132.316C29.7162 134.736 30.503 137.073 32.1181 138.914C33.7332 140.733 35.9488 141.83 38.3714 141.995L54.5845 143.029C56.1789 143.132 57.7319 142.822 59.0778 142.16ZM37.4189 111.325C38.3093 110.912 39.3032 110.684 40.3592 110.767L56.5723 111.801C58.1667 111.904 59.6161 112.607 60.6722 113.807C61.7282 115.006 62.2459 116.537 62.1423 118.129L61.107 134.322C60.8999 137.59 58.0425 140.092 54.7709 139.886L38.5578 138.851C36.9634 138.748 35.5139 138.045 34.4579 136.845C33.4019 135.646 32.8842 134.116 32.9878 132.523L34.0231 116.33C34.168 114.096 35.5347 112.235 37.4189 111.346V111.325Z" fill="white"/>
<path d="M148.033 78.9803C149.917 78.9803 151.822 78.2564 153.251 76.8295L158.013 72.0729C160.891 69.1982 160.891 64.5037 158.013 61.629L153.251 56.8724C150.373 53.9978 145.672 53.9978 142.794 56.8724L138.032 61.629C135.153 64.5037 135.153 69.1982 138.032 72.0729L142.794 76.8295C144.223 78.2771 146.128 78.9803 148.012 78.9803H148.033ZM148.033 57.4101C149.234 57.4101 150.435 57.8651 151.366 58.7751L156.129 63.5317C157.972 65.3723 157.972 68.3503 156.129 70.1702L151.366 74.9268C149.524 76.7467 146.563 76.7674 144.72 74.9268L139.957 70.1702C138.114 68.3503 138.114 65.3723 139.957 63.5317L144.72 58.7751C145.631 57.8651 146.832 57.4101 148.033 57.4101Z" fill="white"/>
<path d="M48.6426 74.9682C43.6938 74.9268 39.6767 72.8174 37.6061 69.1362C35.4733 65.3516 35.7632 60.595 38.4136 56.1072C39.7803 53.8116 40.0494 51.5781 39.1591 49.9857C38.3515 48.5173 36.5708 47.6901 34.1895 47.6281L30.2346 47.5453C25.4929 47.4419 21.6001 45.3738 19.5294 41.8995C17.4381 38.363 17.5209 33.8339 19.7779 29.5323L21.2274 26.7611C22.3662 24.5689 22.5112 22.4801 21.6208 21.0325C20.7511 19.6055 18.8668 18.7782 16.4442 18.7989H15.1811C10.1702 18.8403 6.09101 16.7308 3.95826 13.0496C1.78409 9.26503 2.05327 4.50843 4.68298 0L10.605 3.49507C9.23838 5.81133 8.98989 8.04486 9.90097 9.61661C10.7499 11.1056 12.6549 11.9329 15.119 11.9329H16.3821C21.2688 11.8915 25.3065 13.9182 27.46 17.4547C29.6341 21.0118 29.572 25.5616 27.2943 29.9459L25.8449 32.7378C24.7267 34.8886 24.5611 36.9774 25.4307 38.4251C26.2797 39.8521 28.019 40.6586 30.3589 40.7L34.3138 40.7827C39.1798 40.8861 43.1347 43.0369 45.1432 46.6767C47.2345 50.4613 46.9239 55.1766 44.2942 59.6437C42.9276 61.9599 42.6584 64.1934 43.5488 65.7859C44.3978 67.2749 46.1992 68.1021 48.6426 68.1228L48.6012 75.0095L48.6426 74.9682Z" fill="white"/>
<path d="M11.7237 84.9984C5.42896 85.1846 0.169537 80.2005 0.00388527 73.9135C-0.161764 67.6265 4.80776 62.3529 11.0818 62.1874C17.3765 62.0013 22.6359 66.9854 22.8016 73.2724C22.9879 79.5594 17.9977 84.833 11.7237 84.9984ZM11.1853 65.6204C6.79557 65.7445 3.31691 69.4257 3.44115 73.8101C3.56539 78.1944 7.23041 81.6895 11.6409 81.5654C16.0306 81.4413 19.5093 77.7601 19.385 73.3758C19.2608 68.9914 15.5958 65.4964 11.1853 65.6204Z" fill="white"/>
<path d="M40.3607 133.702L53.1572 134.57L53.3643 131.448L49.368 126.815C48.2291 125.45 47.4837 124.52 47.1317 124.023C46.7797 123.527 46.5519 123.113 46.4277 122.762C46.3034 122.41 46.2413 122.058 46.2827 121.686C46.3241 121.231 46.4898 120.88 46.8004 120.631C47.111 120.383 47.5458 120.28 48.0842 120.321C48.6432 120.363 49.1816 120.549 49.7407 120.921C50.2791 121.273 50.9002 121.79 51.5628 122.451L54.3789 119.577C53.5299 118.708 52.8052 118.067 52.2047 117.674C51.6042 117.281 50.9624 116.971 50.2376 116.743C49.5336 116.516 48.7054 116.371 47.7943 116.309C46.6554 116.226 45.6201 116.371 44.6883 116.702C43.7565 117.033 43.0318 117.571 42.4935 118.274C41.9551 118.977 41.6445 119.804 41.5824 120.714C41.541 121.397 41.5824 122.058 41.7066 122.638C41.8308 123.237 42.0586 123.837 42.3899 124.416C42.7212 125.016 43.1561 125.636 43.7151 126.298C44.2742 126.96 45.4752 128.242 47.2973 130.124V130.248L40.6299 129.793L40.3607 133.722V133.702Z" fill="white"/>
</svg>
