<svg width="16" height="15" viewBox="0 0 16 15" fill="none" xmlns="http://www.w3.org/2000/svg">
    <path d="M14.8439 5.99999C14.7267 5.88282 14.5677 5.817 14.402 5.817C14.2363 5.817 14.0773 5.88282 13.9601 5.99999L7.15261 12.8369C6.86242 13.1271 6.51792 13.3573 6.13877 13.5144C5.75961 13.6715 5.35323 13.7523 4.94283 13.7524C4.11397 13.7524 3.31905 13.4232 2.73292 12.8372C2.14679 12.2511 1.81747 11.4563 1.81741 10.6274C1.81736 9.79855 2.14656 9.00362 2.73261 8.41749L9.32573 1.79749C9.67829 1.45055 10.1537 1.25698 10.6483 1.25893C11.1429 1.26089 11.6167 1.45822 11.9665 1.80793C12.3163 2.15765 12.5138 2.63143 12.5159 3.12606C12.5179 3.62069 12.3245 4.09611 11.9776 4.44874L5.38448 11.0687C5.26557 11.1827 5.10727 11.2462 4.94261 11.2462C4.77794 11.2462 4.61964 11.1827 4.50073 11.0687C4.38356 10.9515 4.31774 10.7926 4.31774 10.6269C4.31774 10.4611 4.38356 10.3022 4.50073 10.185L10.3707 4.28812C10.4846 4.17024 10.5476 4.01237 10.5462 3.84849C10.5447 3.68462 10.479 3.52786 10.3631 3.41198C10.2472 3.2961 10.0905 3.23037 9.92661 3.22895C9.76273 3.22752 9.60486 3.29052 9.48698 3.40437L3.61698 9.30124C3.44284 9.47536 3.3047 9.68207 3.21045 9.90958C3.1162 10.1371 3.06769 10.3809 3.06769 10.6272C3.06769 10.8734 3.1162 11.1173 3.21045 11.3448C3.3047 11.5723 3.44284 11.779 3.61698 11.9531C3.97424 12.294 4.44909 12.4843 4.94292 12.4843C5.43674 12.4843 5.91159 12.294 6.26886 11.9531L12.8614 5.33249C13.4351 4.74393 13.7539 3.95303 13.7486 3.1311C13.7433 2.30918 13.4145 1.52242 12.8332 0.941258C12.252 0.360098 11.4652 0.0313344 10.6432 0.0261845C9.82132 0.0210345 9.03046 0.339913 8.44198 0.913744L1.84886 7.53374C1.02834 8.35426 0.567383 9.46711 0.567383 10.6275C0.567383 11.7879 1.02834 12.9007 1.84886 13.7212C2.66937 14.5418 3.78222 15.0027 4.94261 15.0027C6.10299 15.0027 7.21584 14.5418 8.03636 13.7212L14.8439 6.88624C14.9022 6.82816 14.9486 6.75912 14.9802 6.68307C15.0118 6.60702 15.0281 6.52548 15.0281 6.44312C15.0281 6.36076 15.0118 6.27921 14.9802 6.20317C14.9486 6.12712 14.9022 6.05807 14.8439 5.99999Z" fill="#525252"/>
</svg>
