<svg width="89" height="94" viewBox="0 0 89 94" fill="none" xmlns="http://www.w3.org/2000/svg">
<path d="M59.2378 87.6539C59.6758 87.9182 59.6758 88.3586 59.2378 88.6404C58.7999 88.9046 58.1024 88.9046 57.6644 88.6404C57.2264 88.3762 57.2264 87.9358 57.6644 87.6539C58.1024 87.3721 58.7999 87.3897 59.2378 87.6539Z" fill="#16110D"/>
<path d="M55.1343 85.0821C55.5723 85.3463 55.5723 85.7867 55.1343 86.0686C54.6963 86.3328 53.9988 86.3328 53.5609 86.0686C53.1229 85.8043 53.1229 85.3639 53.5609 85.0821C53.9988 84.8179 54.6963 84.8179 55.1343 85.0821Z" fill="#16110D"/>
<path d="M34.6148 92.8154C35.0527 93.0796 35.0527 93.52 34.6148 93.8018C34.1768 94.0661 33.4793 94.0661 33.0414 93.8018C32.6034 93.5376 32.6034 93.0972 33.0414 92.8154C33.4793 92.5511 34.1768 92.5511 34.6148 92.8154Z" fill="#16110D"/>
<path d="M38.7183 90.2435C39.1562 90.5077 39.1562 90.9481 38.7183 91.2299C38.2803 91.4942 37.5828 91.4942 37.1449 91.2299C36.7069 90.9657 36.7069 90.5253 37.1449 90.2435C37.5828 89.9792 38.2803 89.9792 38.7183 90.2435Z" fill="#16110D"/>
<path d="M51.0308 82.5102C51.4687 82.7744 51.4687 83.2148 51.0308 83.4967C50.5928 83.7609 49.8953 83.7609 49.4574 83.4967C49.0194 83.2324 49.0194 82.792 49.4574 82.5102C49.8953 82.246 50.5928 82.246 51.0308 82.5102Z" fill="#16110D"/>
<path d="M26.4077 92.8154C26.8457 93.0796 26.8457 93.52 26.4077 93.8018C25.9698 94.0661 25.2723 94.0661 24.8343 93.8018C24.3964 93.5376 24.3964 93.0972 24.8343 92.8154C25.2723 92.5511 25.9698 92.5511 26.4077 92.8154Z" fill="#16110D"/>
<path d="M30.5112 90.2435C30.9492 90.5077 30.9492 90.9481 30.5112 91.2299C30.0733 91.4942 29.3758 91.4942 28.9378 91.2299C28.4999 90.9657 28.4999 90.5253 28.9378 90.2435C29.3758 89.9792 30.0733 89.9792 30.5112 90.2435Z" fill="#16110D"/>
<path d="M34.6148 87.654C35.0527 87.9182 35.0527 88.3586 34.6148 88.6405C34.1768 88.9047 33.4793 88.9047 33.0414 88.6405C32.6034 88.3762 32.6034 87.9358 33.0414 87.654C33.4793 87.3898 34.1768 87.3898 34.6148 87.654Z" fill="#16110D"/>
<path d="M38.7183 85.0821C39.1562 85.3463 39.1562 85.7867 38.7183 86.0686C38.2803 86.3328 37.5828 86.3328 37.1449 86.0686C36.7069 85.8043 36.7069 85.3639 37.1449 85.0821C37.5828 84.8179 38.2803 84.8179 38.7183 85.0821Z" fill="#16110D"/>
<path d="M42.8218 82.5102C43.2598 82.7744 43.2598 83.2148 42.8218 83.4967C42.3838 83.7609 41.6863 83.7609 41.2484 83.4967C40.8104 83.2324 40.8104 82.792 41.2484 82.5102C41.6863 82.246 42.3838 82.246 42.8218 82.5102Z" fill="#16110D"/>
<path d="M46.9273 79.9383C47.3652 80.2025 47.3652 80.6429 46.9273 80.9248C46.4893 81.189 45.7918 81.189 45.3539 80.9248C44.9159 80.6605 44.9159 80.2201 45.3539 79.9383C45.7918 79.6741 46.4893 79.6741 46.9273 79.9383Z" fill="#16110D"/>
<path d="M22.2866 90.2435C22.7246 90.5077 22.7246 90.9481 22.2866 91.2299C21.8487 91.4942 21.1512 91.4942 20.7132 91.2299C20.2753 90.9657 20.2753 90.5253 20.7132 90.2435C21.1512 89.9792 21.8487 89.9792 22.2866 90.2435Z" fill="#16110D"/>
<path d="M26.4077 87.654C26.8457 87.9182 26.8457 88.3586 26.4077 88.6405C25.9698 88.9047 25.2723 88.9047 24.8343 88.6405C24.3964 88.3762 24.3964 87.9358 24.8343 87.654C25.2723 87.3898 25.9698 87.3898 26.4077 87.654Z" fill="#16110D"/>
<path d="M30.5112 85.0821C30.9492 85.3463 30.9492 85.7867 30.5112 86.0686C30.0733 86.3328 29.3758 86.3328 28.9378 86.0686C28.4999 85.8043 28.4999 85.3639 28.9378 85.0821C29.3758 84.8179 30.0733 84.8179 30.5112 85.0821Z" fill="#16110D"/>
<path d="M34.6148 82.5102C35.0527 82.7744 35.0527 83.2148 34.6148 83.4967C34.1768 83.7609 33.4793 83.7609 33.0414 83.4967C32.6034 83.2324 32.6034 82.792 33.0414 82.5102C33.4793 82.246 34.1768 82.246 34.6148 82.5102Z" fill="#16110D"/>
<path d="M38.7183 79.9383C39.1562 80.2025 39.1562 80.6429 38.7183 80.9248C38.2803 81.189 37.5828 81.189 37.1449 80.9248C36.7069 80.6605 36.7069 80.2201 37.1449 79.9383C37.5828 79.6741 38.2803 79.6741 38.7183 79.9383Z" fill="#16110D"/>
<path d="M42.8218 77.3665C43.2598 77.6307 43.2598 78.0711 42.8218 78.353C42.3838 78.6172 41.6863 78.6172 41.2484 78.353C40.8104 78.0888 40.8104 77.6484 41.2484 77.3665C41.6863 77.1023 42.3838 77.1023 42.8218 77.3665Z" fill="#16110D"/>
<path d="M18.1519 87.6363C18.5898 87.9005 18.5898 88.3409 18.1519 88.6228C17.7139 88.887 17.0164 88.887 16.5785 88.6228C16.1405 88.3585 16.1405 87.9181 16.5785 87.6363C17.0164 87.3721 17.7139 87.3721 18.1519 87.6363Z" fill="#16110D"/>
<path d="M22.2534 85.0645C22.6914 85.3287 22.6914 85.7691 22.2534 86.051C21.8155 86.3152 21.118 86.3152 20.68 86.051C20.2421 85.7867 20.2421 85.3464 20.68 85.0645C21.118 84.8003 21.8155 84.8003 22.2534 85.0645Z" fill="#16110D"/>
<path d="M30.4624 79.9031C30.9004 80.1674 30.9004 80.6078 30.4624 80.8896C30.0245 81.1538 29.327 81.1538 28.889 80.8896C28.4511 80.6254 28.4511 80.185 28.889 79.9031C29.327 79.6389 30.0245 79.6389 30.4624 79.9031Z" fill="#16110D"/>
<path d="M34.5816 77.3311C35.0195 77.5953 35.0195 78.0357 34.5816 78.3176C34.1436 78.5818 33.4461 78.5818 33.0082 78.3176C32.5702 78.0533 32.5702 77.613 33.0082 77.3311C33.4461 77.0669 34.1436 77.0669 34.5816 77.3311Z" fill="#16110D"/>
<path d="M38.6851 74.7593C39.123 75.0236 39.123 75.464 38.6851 75.7458C38.2471 76.01 37.5496 76.01 37.1117 75.7458C36.6737 75.4816 36.6737 75.0412 37.1117 74.7593C37.5496 74.4951 38.2471 74.4951 38.6851 74.7593Z" fill="#16110D"/>
<path d="M14.0464 85.0645C14.4844 85.3287 14.4844 85.7691 14.0464 86.051C13.6084 86.3152 12.911 86.3152 12.473 86.051C12.035 85.7867 12.035 85.3464 12.473 85.0645C12.911 84.8003 13.6084 84.8003 14.0464 85.0645Z" fill="#16110D"/>
<path d="M18.1519 82.4926C18.5898 82.7568 18.5898 83.1972 18.1519 83.4791C17.7139 83.7433 17.0164 83.7433 16.5785 83.4791C16.1405 83.2148 16.1405 82.7745 16.5785 82.4926C17.0164 82.2284 17.7139 82.2284 18.1519 82.4926Z" fill="#16110D"/>
<path d="M34.5816 72.1874C35.0195 72.4517 35.0195 72.8921 34.5816 73.1739C34.1436 73.4381 33.4461 73.4381 33.0082 73.1739C32.5702 72.9097 32.5702 72.4693 33.0082 72.1874C33.4461 71.9232 34.1436 71.9232 34.5816 72.1874Z" fill="#16110D"/>
<path d="M9.94484 82.4926C10.3828 82.7568 10.3828 83.1972 9.94484 83.4791C9.50689 83.7433 8.8094 83.7433 8.37144 83.4791C7.93348 83.2148 7.93348 82.7745 8.37144 82.4926C8.8094 82.2284 9.50689 82.2284 9.94484 82.4926Z" fill="#16110D"/>
<path d="M14.0464 79.9031C14.4844 80.1674 14.4844 80.6078 14.0464 80.8896C13.6084 81.1538 12.911 81.1538 12.473 80.8896C12.035 80.6254 12.035 80.185 12.473 79.9031C12.911 79.6389 13.6084 79.6389 14.0464 79.9031Z" fill="#16110D"/>
<path d="M5.83937 79.9031C6.27733 80.1673 6.27733 80.6077 5.83937 80.8895C5.40142 81.1538 4.70393 81.1538 4.26597 80.8895C3.82801 80.6253 3.82801 80.1849 4.26597 79.9031C4.70393 79.6212 5.40142 79.6388 5.83937 79.9031Z" fill="#16110D"/>
<path d="M9.94484 77.3311C10.3828 77.5953 10.3828 78.0357 9.94484 78.3176C9.50689 78.5818 8.8094 78.5818 8.37144 78.3176C7.93348 78.0533 7.93348 77.613 8.37144 77.3311C8.8094 77.0669 9.50689 77.0669 9.94484 77.3311Z" fill="#16110D"/>
<path d="M5.83937 74.7593C6.27733 75.0236 6.27733 75.464 5.83937 75.7458C5.40142 76.01 4.70393 76.01 4.26597 75.7458C3.82801 75.4816 3.82801 75.0412 4.26597 74.7593C4.70393 74.4951 5.40142 74.4951 5.83937 74.7593Z" fill="#16110D"/>
<path d="M9.94484 72.1875C10.3828 72.4517 10.3828 72.8921 9.94484 73.174C9.50689 73.4382 8.8094 73.4382 8.37144 73.174C7.93348 72.9097 7.93348 72.4694 8.37144 72.1875C8.8094 71.9057 9.50689 71.9233 9.94484 72.1875Z" fill="#16110D"/>
<path d="M63.3902 85.0996C63.8281 85.3638 63.8281 85.8042 63.3902 86.0861C62.9522 86.3503 62.2547 86.3503 61.8167 86.0861C61.3788 85.8218 61.3788 85.3815 61.8167 85.0996C62.2547 84.8178 62.9522 84.8354 63.3902 85.0996Z" fill="#16110D"/>
<path d="M67.4956 82.5278C67.9336 82.792 67.9336 83.2324 67.4956 83.5142C67.0577 83.7785 66.3602 83.7785 65.9222 83.5142C65.4843 83.25 65.4843 82.8096 65.9222 82.5278C66.3602 82.2635 67.0577 82.2635 67.4956 82.5278Z" fill="#16110D"/>
<path d="M71.5972 79.9559C72.0351 80.2201 72.0351 80.6605 71.5972 80.9423C71.1592 81.2066 70.4617 81.2066 70.0238 80.9423C69.5858 80.6781 69.5858 80.2377 70.0238 79.9559C70.4617 79.6916 71.1592 79.6916 71.5972 79.9559Z" fill="#16110D"/>
<path d="M75.7027 77.3841C76.1406 77.6483 76.1406 78.0887 75.7027 78.3706C75.2647 78.6348 74.5672 78.6348 74.1292 78.3706C73.6913 78.1063 73.6913 77.6659 74.1292 77.3841C74.5672 77.1199 75.2647 77.1199 75.7027 77.3841Z" fill="#16110D"/>
<path d="M79.8042 74.8122C80.2422 75.0764 80.2422 75.5168 79.8042 75.7987C79.3663 76.0629 78.6688 76.0629 78.2308 75.7987C77.7929 75.5344 77.7929 75.094 78.2308 74.8122C78.6688 74.548 79.3663 74.548 79.8042 74.8122Z" fill="#16110D"/>
<path d="M83.9097 72.2403C84.3476 72.5045 84.3476 72.9449 83.9097 73.2268C83.4717 73.491 82.7742 73.491 82.3363 73.2268C81.8983 72.9625 81.8983 72.5221 82.3363 72.2403C82.7742 71.9761 83.4717 71.9761 83.9097 72.2403Z" fill="#16110D"/>
<path d="M88.0132 69.6684C88.4512 69.9326 88.4512 70.373 88.0132 70.6549C87.5752 70.9367 86.8778 70.9191 86.4398 70.6549C86.0018 70.3906 86.0018 69.9502 86.4398 69.6684C86.8778 69.4042 87.5752 69.4042 88.0132 69.6684Z" fill="#16110D"/>
<path d="M57.6957 82.5454C58.1336 82.2812 58.8311 82.2636 59.2691 82.5454C59.707 82.8096 59.707 83.25 59.2691 83.5319C58.8311 83.8137 58.1336 83.8137 57.6957 83.5319C57.2577 83.2676 57.2577 82.8273 57.6957 82.5454Z" fill="#16110D"/>
<path d="M63.3902 79.9559C63.8281 80.2201 63.8281 80.6605 63.3902 80.9423C62.9522 81.2242 62.2547 81.2066 61.8167 80.9423C61.3788 80.6781 61.3788 80.2377 61.8167 79.9559C62.2547 79.6916 62.9522 79.6916 63.3902 79.9559Z" fill="#16110D"/>
<path d="M70.0238 74.8122C70.4617 74.548 71.1592 74.548 71.5972 74.8122C72.0351 75.0764 72.0351 75.5168 71.5972 75.7987C71.1592 76.0629 70.4617 76.0629 70.0238 75.7987C69.5858 75.5344 69.5858 75.094 70.0238 74.8122Z" fill="#16110D"/>
<path d="M74.1292 72.2403C74.5672 71.9761 75.2647 71.9761 75.7027 72.2403C76.1406 72.5045 76.1406 72.9449 75.7027 73.2268C75.2647 73.491 74.5672 73.491 74.1292 73.2268C73.6913 72.9625 73.6913 72.5221 74.1292 72.2403Z" fill="#16110D"/>
<path d="M79.8042 69.6684C80.2422 69.9326 80.2422 70.373 79.8042 70.6549C79.3663 70.9191 78.6688 70.9191 78.2308 70.6549C77.7929 70.3906 77.7929 69.9502 78.2308 69.6684C78.6688 69.4042 79.3663 69.4042 79.8042 69.6684Z" fill="#16110D"/>
<path d="M83.9097 67.0965C84.3476 67.3607 84.3476 67.8011 83.9097 68.083C83.4717 68.3472 82.7742 68.3472 82.3363 68.083C81.8983 67.8187 81.8983 67.3783 82.3363 67.0965C82.7742 66.8323 83.4717 66.8323 83.9097 67.0965Z" fill="#16110D"/>
<path d="M53.5921 79.9559C54.0301 79.6916 54.7276 79.6916 55.1655 79.9559C55.6035 80.2201 55.6035 80.6605 55.1655 80.9423C54.7276 81.2066 54.0301 81.2242 53.5921 80.9423C53.1542 80.6781 53.1542 80.2377 53.5921 79.9559Z" fill="#16110D"/>
<path d="M75.7023 67.0965C76.1403 67.3608 76.1403 67.8012 75.7023 68.083C75.2644 68.3473 74.5669 68.3473 74.1289 68.083C73.691 67.8188 75.2644 66.8323 75.7023 67.0965Z" fill="#16110D"/>
<path d="M78.2308 64.507C78.6688 64.2428 79.3663 64.2428 79.8042 64.507C80.2422 64.7712 80.2422 65.2116 79.8042 65.4935C79.3663 65.7577 78.6688 65.7577 78.2308 65.4935C77.7929 65.2293 77.7929 64.7889 78.2308 64.507C78.6688 64.2428 77.7929 64.7712 78.2308 64.507Z" fill="#16110D"/>
<path d="M49.4886 77.384C49.9266 77.1198 50.6241 77.1022 51.062 77.384C51.5 77.6483 51.5 78.0887 51.062 78.3705C50.6241 78.6524 49.9266 78.6524 49.4886 78.3705C49.0507 78.1063 49.0507 77.6659 49.4886 77.384Z" fill="#16110D"/>
<path d="M45.3851 74.8123C45.8231 74.548 46.5206 74.5304 46.9585 74.8123C47.3965 75.0765 47.3965 75.5169 46.9585 75.7987C46.5206 76.063 45.8231 76.0806 45.3851 75.7987C44.9472 75.5345 44.9472 75.0941 45.3851 74.8123Z" fill="#16110D"/>
<path d="M41.2484 72.2051C41.6863 71.9408 42.3838 71.9232 42.8218 72.2051C43.2598 72.4693 43.2598 72.9097 42.8218 73.1916C42.3838 73.4558 41.6863 73.4734 41.2484 73.1916C40.8104 72.9273 40.8104 72.4869 41.2484 72.2051Z" fill="#16110D"/>
<path d="M37.1449 69.6332C37.5828 69.3689 38.2803 69.3513 38.7183 69.6332C39.1562 69.8974 39.1562 70.3378 38.7183 70.6197C38.2803 70.8839 37.5828 70.9015 37.1449 70.6197C36.7069 70.3554 36.7069 69.915 37.1449 69.6332Z" fill="#16110D"/>
<path d="M42.8218 67.0613C43.2598 67.3256 43.2598 67.766 42.8218 68.0478C42.3838 68.312 41.6863 68.312 41.2484 68.0478C40.8104 67.7836 40.8104 67.3432 41.2484 67.0613C41.6863 66.7971 42.3838 66.7971 42.8218 67.0613Z" fill="#16110D"/>
<path d="M66.0824 87.2664C66.5203 87.0021 67.2178 86.9845 67.6558 87.2664C68.0937 87.5306 68.0937 87.971 67.6558 88.2528C67.2178 88.5171 66.5203 88.5347 66.0824 88.2528C65.6444 87.9886 65.6444 87.5482 66.0824 87.2664Z" fill="#16110D"/>
<path d="M71.7593 84.6945C72.1973 84.9587 72.1973 85.3991 71.7593 85.681C71.3213 85.9452 70.6238 85.9452 70.1859 85.681C69.7479 85.4168 69.7479 84.9764 70.1859 84.6945C70.6238 84.4303 71.3213 84.4303 71.7593 84.6945Z" fill="#16110D"/>
<path d="M75.8628 82.1226C76.3008 82.3868 76.3008 82.8272 75.8628 83.1091C75.4249 83.3733 74.7274 83.3733 74.2894 83.1091C73.8514 82.8449 73.8514 82.4045 74.2894 82.1226C74.7274 81.8584 75.4249 81.8584 75.8628 82.1226Z" fill="#16110D"/>
<path d="M79.9683 79.5508C80.4062 79.815 80.4062 80.2554 79.9683 80.5373C79.5303 80.8015 78.8328 80.8015 78.3949 80.5373C77.9569 80.273 77.9569 79.8326 78.3949 79.5508C78.8328 79.2689 79.5303 79.2865 79.9683 79.5508Z" fill="#16110D"/>
<path d="M84.0718 76.9789C84.5098 77.2432 84.5098 77.6836 84.0718 77.9654C83.6338 78.2296 82.9363 78.2296 82.4984 77.9654C82.0604 77.7012 82.0604 77.2608 82.4984 76.9789C82.9363 76.7147 83.6338 76.7147 84.0718 76.9789Z" fill="#16110D"/>
<path d="M88.1753 74.407C88.6133 74.6713 88.6133 75.1117 88.1753 75.3935C87.7374 75.6577 87.0399 75.6577 86.6019 75.3935C86.1639 75.1293 86.1639 74.6889 86.6019 74.407C87.0399 74.1428 87.7374 74.1428 88.1753 74.407Z" fill="#16110D"/>
<path d="M56.3845 11.0964C56.5467 10.427 56.2872 9.72241 55.7357 9.38771L45.76 3.187C45.3382 2.86992 44.8841 2.60569 44.4299 2.35907L44.0893 2.14768L43.9595 2.09483C39.369 -0.177586 33.1241 0.667965 26.1005 5.08949C12.1345 13.8445 0.8125 33.5035 0.8125 49.0229C0.8125 55.664 2.72654 60.3145 6.19776 62.9393L6.35997 63.0802L6.63572 63.2564C7.10612 63.591 7.46298 63.8201 7.96582 64.0843L12.7509 67.0789V75.9396C12.7509 76.5562 12.978 76.9261 13.3024 77.0494L23.4241 83.2853C23.8296 83.532 24.3325 83.3206 24.4785 82.8449L27.6739 72.716L28.1606 69.7037L20.2286 67.5369L22.9699 62.9745C24.0081 62.4636 25.0462 61.8999 26.1168 61.2305C32.0535 57.5136 37.4874 51.8238 41.8021 45.3236L49.3123 39.3167L56.4008 11.0964H56.3845Z" fill="white"/>
<path d="M56.7869 15.6764C56.9491 15.007 56.6896 14.3024 56.1381 13.9677L46.1623 7.76696C45.7406 7.44988 45.2864 7.18564 44.8322 6.93902L44.4916 6.72764L44.3618 6.67479C39.7714 4.40237 33.5264 5.24792 26.5029 9.66945C12.5369 18.4068 1.21484 38.0835 1.21484 53.5852C1.21484 60.2263 23.3723 67.5545 23.3723 67.5545C24.4104 67.0436 25.4485 66.4799 26.5191 65.8105C32.4559 62.0936 37.8898 56.4037 42.2045 49.9036L49.7147 43.8966L56.8031 15.6764H56.7869Z" fill="#CDCCFF"/>
<path d="M23.7957 84.2719C23.5362 84.2719 23.2767 84.2014 23.0334 84.0605L12.9117 77.8245C12.3602 77.6132 11.9546 76.8909 11.9546 75.9573V67.6075L7.57505 64.8594C7.07221 64.5952 6.68292 64.3662 6.1963 63.9963L5.69346 63.6087C1.99514 60.8078 0 55.7521 0 49.0053C0 33.257 11.5329 13.2104 25.6935 4.31446C32.7333 -0.0894507 39.3514 -1.16401 44.3149 1.28457L44.8502 1.58404C45.4017 1.8835 45.8396 2.14774 46.2289 2.4472L56.1398 8.61268C57.0157 9.15876 57.4374 10.2685 57.1779 11.3255L50.0083 39.8452L42.3846 45.9578C37.8104 52.8103 32.3278 58.3593 26.5208 62.0057C25.5476 62.6046 24.5419 63.1683 23.52 63.6792L21.5248 66.9909L29.0999 69.052L28.4835 72.8745L25.2718 83.1445C25.1258 83.6201 24.7852 83.99 24.3635 84.1662C24.185 84.2366 24.0066 84.2719 23.8119 84.2719H23.7957ZM38.5079 1.76019C34.9231 1.76019 30.8193 3.13421 26.5046 5.84702C12.7819 14.4435 1.62207 33.8207 1.62207 49.023C1.62207 55.2413 3.32524 59.6804 6.6667 62.2171L7.07221 62.5166C7.52639 62.8513 7.83459 63.045 8.32121 63.2916L13.5767 66.5682V75.9397C13.5767 76.1687 13.6254 76.2391 13.6254 76.2391L23.8282 82.5103L26.9101 72.4165L27.2345 70.3555L18.9295 68.0831L22.417 62.2699L22.6278 62.1642C23.6822 61.6534 24.7041 61.0721 25.6935 60.4555C31.3383 56.9148 36.6749 51.5068 41.1194 44.7952L41.2978 44.6014L48.5809 38.7707L55.6045 10.8499C55.6693 10.568 55.5558 10.2685 55.3287 10.1276L45.353 3.92692C44.915 3.59222 44.4933 3.36322 44.0716 3.1166L43.6985 2.88759C42.1413 2.1125 40.4057 1.74258 38.5241 1.74258L38.5079 1.76019Z" fill="#16110D"/>
<path d="M24.559 67.8012L18.2005 69.4747L11.8906 65.5464V75.9044C11.8906 76.8556 12.2961 77.5779 12.8476 77.7893L23.4235 84.3071C23.5857 84.4127 23.7804 84.4656 23.9588 84.4656C24.0886 84.4656 24.2183 84.448 24.3481 84.3951C24.6563 84.2718 24.8996 84.0076 24.9969 83.6729L28.3871 72.8569L29.0034 69.0343L24.5428 67.8188L24.559 67.8012Z" fill="#16110D"/>
<path d="M36.8544 11.7658C22.8884 20.5208 11.5664 40.1974 11.5664 55.6992C11.5664 65.7753 16.3515 71.6061 23.521 72.0641V82.6335C23.521 84.2365 25.0133 84.1837 25.9866 82.5454L33.7076 69.6684C34.7457 69.1575 35.7839 68.5938 36.8544 67.9245C50.8204 59.1695 62.1425 39.4928 62.1425 23.991C62.1425 8.48927 50.8367 3.0108 36.8544 11.7658Z" fill="white"/>
<path d="M24.3631 84.6769C24.2008 84.6769 24.0386 84.6593 23.8764 84.6065C23.1465 84.3775 22.7085 83.6376 22.7085 82.6335V72.8745C15.3119 72.0113 10.7539 65.5111 10.7539 55.6992C10.7539 39.9332 22.2868 19.8866 36.4475 10.9907C43.9414 6.28732 51.1434 5.40654 56.2042 8.57736C60.5676 11.3078 62.952 16.7686 62.952 23.9558C62.952 39.7218 51.4191 59.7684 37.2585 68.6643C36.2852 69.2809 35.2958 69.827 34.2577 70.3378L26.6664 83.0034C26.0338 84.0604 25.1741 84.6593 24.3631 84.6593V84.6769ZM49.2942 8.47166C45.677 8.47166 41.5407 9.84568 37.2585 12.5233C23.5358 21.1373 12.376 40.4969 12.376 55.6992C12.376 64.9474 16.5609 70.743 23.5682 71.1833L24.3306 71.2362V82.6335C24.3306 82.8625 24.3793 82.9506 24.3793 82.9506C24.4442 82.9506 24.8821 82.7744 25.3039 82.0698L33.1547 68.9814L33.3655 68.8757C34.4361 68.3472 35.4418 67.8012 36.4312 67.167C50.1539 58.5706 61.3138 39.1933 61.3138 23.991C61.3138 17.4556 59.2051 12.5409 55.377 10.1275C53.6251 9.01775 51.5489 8.47166 49.278 8.47166H49.2942Z" fill="#16110D"/>
<path d="M30.6905 46.8914C30.6905 49.2871 29.1333 52.2113 27.2193 53.4268C25.3052 54.6423 23.748 53.6558 23.748 51.2425C23.748 48.8291 25.3052 45.9225 27.2193 44.7071C29.1333 43.5092 30.6905 44.4781 30.6905 46.8914Z" fill="#CDCCFF"/>
<path d="M24.2505 52.8983C23.8126 52.8983 23.4071 52.7926 23.0502 52.5636C22.2067 52.0351 21.7363 50.9606 21.7363 49.5513C21.7363 46.8914 23.3908 43.7734 25.5157 42.4522C26.635 41.7476 27.7218 41.6595 28.5815 42.188C29.4412 42.7165 29.8953 43.791 29.8953 45.2003C29.8953 47.8602 28.2408 50.9782 26.1159 52.2994C25.4671 52.7045 24.8345 52.8983 24.2668 52.8983H24.2505ZM27.3487 43.1569C26.9756 43.1569 26.5539 43.2978 26.0997 43.5796C24.3803 44.6542 22.9367 47.3846 22.9367 49.5337C22.9367 50.4497 23.1962 51.1191 23.6504 51.401C24.1045 51.6828 24.7696 51.5948 25.4995 51.1367C27.2189 50.0622 28.6626 47.3318 28.6626 45.1827C28.6626 44.2666 28.403 43.5972 27.9488 43.3154C27.7704 43.2097 27.5758 43.1569 27.3487 43.1569Z" fill="#16110D"/>
<path d="M42.2393 39.669C42.2393 42.0647 40.6821 44.9889 38.7681 46.2044C36.8541 47.4023 35.2969 46.4334 35.2969 44.0201C35.2969 41.6067 36.8541 38.7001 38.7681 37.4847C40.6821 36.2868 42.2393 37.2556 42.2393 39.669Z" fill="#CDCCFF"/>
<path d="M35.7837 45.6583C35.3458 45.6583 34.9403 45.5526 34.5834 45.3236C33.7399 44.7952 33.2695 43.7206 33.2695 42.3113C33.2695 39.6514 34.924 36.5334 37.0489 35.2122C38.1682 34.5076 39.255 34.4195 40.1147 34.948C40.9581 35.4765 41.4285 36.551 41.4285 37.9603C41.4285 40.6202 39.774 43.7382 37.6491 45.0594C37.0003 45.4645 36.3677 45.6583 35.8 45.6583H35.7837ZM38.8819 35.9169C38.5088 35.9169 38.0871 36.0578 37.6329 36.3396C35.9135 37.4142 34.4699 40.1446 34.4699 42.2937C34.4699 43.2097 34.7294 43.8791 35.1836 44.161C35.6378 44.4428 36.3028 44.3548 37.0327 43.8968C38.7521 42.8222 40.1958 40.0918 40.1958 37.9427C40.1958 37.0267 39.9362 36.3573 39.482 36.0754C39.3036 35.9697 39.109 35.9169 38.8819 35.9169Z" fill="#16110D"/>
<path d="M53.7706 32.4289C53.7706 34.8246 52.2134 37.7488 50.2993 38.9643C48.3853 40.1622 46.8281 39.1933 46.8281 36.78C46.8281 34.3666 48.3853 31.4601 50.2993 30.2446C52.2134 29.0291 53.7706 30.0156 53.7706 32.4289Z" fill="#CDCCFF"/>
<path d="M47.315 38.4358C46.877 38.4358 46.4715 38.3301 46.1147 38.1011C45.2712 37.5726 44.8008 36.4981 44.8008 35.0888C44.8008 32.4288 46.4553 29.3109 48.5802 27.9897C49.6994 27.2851 50.7862 27.197 51.6459 27.7255C52.4894 28.2539 52.9598 29.3285 52.9598 30.7377C52.9598 33.3977 51.3053 36.5157 49.1804 37.8369C48.5315 38.242 47.8989 38.4358 47.3312 38.4358H47.315ZM50.4131 28.6943C50.0401 28.6943 49.6183 28.8353 49.1641 29.1171C47.4447 30.1917 46.0011 32.9221 46.0011 35.0712C46.0011 35.9872 46.2606 36.6566 46.7148 36.9385C47.169 37.2203 47.834 37.1322 48.564 36.6742C50.2834 35.5997 51.727 32.8692 51.727 30.7201C51.727 29.8041 51.4675 29.1347 51.0133 28.8529C50.8349 28.7472 50.6402 28.6943 50.4131 28.6943Z" fill="#16110D"/>
<path d="M81.2663 37.2203L73.4642 32.517H73.4479C70.4147 30.7025 66.0513 31.0901 61.1851 34.1376C52.0529 39.8627 44.6562 52.7221 44.6562 62.8687C44.6562 67.4488 45.9052 70.4963 48.4194 72.1345L48.679 72.3459L56.6271 77.1021L57.8437 72.5749C58.9304 72.1522 60.0497 71.5708 61.1851 70.8486C61.2824 70.7781 61.396 70.7077 61.4933 70.6372L66.0838 73.6671C66.7975 74.1427 68.0465 72.7159 68.0465 71.4299V64.8593C73.7399 58.3943 77.714 49.5337 77.714 42.1175C77.714 41.9413 77.6978 41.7652 77.6815 41.589L81.2663 37.2027V37.2203Z" fill="white"/>
<path d="M81.5085 41.3072L73.7064 36.6039H73.6901C70.6569 34.7895 66.2935 35.177 61.4273 38.2245C52.2951 43.9496 44.8984 56.809 44.8984 66.9556C44.8984 71.5357 68.3049 68.9462 68.3049 68.9462C73.9983 62.4812 77.9724 53.6206 77.9724 46.2044C77.9724 46.0282 77.9562 45.8521 77.9399 45.6759L81.5247 41.2896L81.5085 41.3072Z" fill="#CDCCFF"/>
<path d="M57.0972 78.4058L47.9163 72.8569C45.2075 71.0777 43.8125 67.7131 43.8125 62.8688C43.8125 52.4756 51.42 39.2462 60.7469 33.3802C65.4671 30.4208 70.0576 29.769 73.4152 31.5306L73.8207 31.742L82.515 36.9738L78.4761 41.9062C78.4761 41.9062 78.4761 42.0471 78.4761 42.1176C78.4761 49.3929 74.6967 58.4121 68.8086 65.2117V71.43C68.8086 72.5574 68.1273 73.8258 67.2189 74.3718C66.6674 74.7065 66.0673 74.7242 65.5969 74.4247L61.4282 71.6766C60.4225 72.2932 59.4168 72.8217 58.4273 73.2444L57.0324 78.4058H57.0972ZM69.2627 32.3233C66.9594 32.3233 64.3154 33.2041 61.5741 34.9128C52.6852 40.497 45.4508 53.0393 45.4508 62.8688C45.4508 67.1142 46.5538 69.8975 48.8247 71.3948L49.1491 71.6414L56.124 75.8163L57.1783 71.9233L57.5676 71.7647C58.622 71.342 59.7088 70.7959 60.7793 70.1089L61.493 69.6332L66.5052 72.945C66.635 72.8745 67.2352 72.1523 67.2352 71.4653V64.5423L67.4622 64.2781C73.1881 57.7603 76.9027 49.0758 76.9027 42.1528L76.8702 41.3073L80.0008 37.4847L73.4639 33.5564L73.0584 33.345C71.9716 32.6932 70.6902 32.3585 69.279 32.3585L69.2627 32.3233Z" fill="#16110D"/>
<path d="M86.0363 47.1205C86.0363 36.9915 78.6396 33.4155 69.5074 39.1406C60.3751 44.8657 52.9785 57.7251 52.9785 67.8717C52.9785 78.0183 60.3751 81.5767 69.5074 75.8516C69.6047 75.7811 69.7183 75.7107 69.8156 75.6402L74.406 78.6701C75.1197 79.1457 76.3687 77.7189 76.3687 76.4329V69.8623C82.0622 63.3973 86.0363 54.5367 86.0363 47.1205Z" fill="white"/>
<path d="M74.7133 79.639C74.4538 79.639 74.2105 79.5685 73.9834 79.4276L69.8147 76.6795C64.8512 79.7623 60.0823 80.3084 56.7084 78.1945C53.7725 76.3448 52.1504 72.6808 52.1504 67.8717C52.1504 57.4785 59.7579 44.2491 69.0848 38.3831C74.0807 35.2475 78.8821 34.6838 82.2884 36.8153C85.2243 38.665 86.8464 42.329 86.8464 47.1381C86.8464 54.4134 83.067 63.4326 77.1789 70.2322V76.4505C77.1789 77.5779 76.4976 78.8463 75.5893 79.3923C75.2973 79.5685 74.9891 79.6566 74.6971 79.6566L74.7133 79.639ZM69.8147 74.6009L74.8269 77.9126C74.9567 77.8422 75.5568 77.1199 75.5568 76.4329V69.51L75.7839 69.2633C81.5098 62.7456 85.2243 54.061 85.2243 47.1381C85.2243 42.9808 83.8942 39.8628 81.4774 38.3479C78.5901 36.5335 74.3727 37.1148 69.8958 39.9157C61.0069 45.4998 53.7725 58.0422 53.7725 67.8717C53.7725 72.029 55.1025 75.147 57.5194 76.6619C60.4067 78.4763 64.6241 77.895 69.101 75.0941L69.8147 74.6185V74.6009Z" fill="#16110D"/>
<path d="M65.37 62.4988C65.37 64.1195 64.3157 66.0924 63.018 66.9027C61.7204 67.7131 60.666 67.0613 60.666 65.4406C60.666 63.82 61.7204 61.847 63.018 61.0367C64.3157 60.2264 65.37 60.8782 65.37 62.4988Z" fill="#CDCCFF"/>
<path d="M61.0717 66.5505C60.7472 66.5505 60.439 66.4624 60.1633 66.2863C59.5307 65.8811 59.1738 65.0884 59.1738 64.0667C59.1738 62.1994 60.3417 60.0151 61.8178 59.0815C62.6451 58.5706 63.4399 58.5002 64.0887 58.9053C64.7213 59.3105 65.0782 60.1032 65.0782 61.1249C65.0782 62.9921 63.9103 65.1765 62.4342 66.1101C61.9638 66.4096 61.5096 66.5505 61.0879 66.5505H61.0717ZM63.1641 59.9623C62.9532 59.9623 62.6937 60.0503 62.418 60.2265C61.315 60.9135 60.3742 62.6751 60.3742 64.0667C60.3742 64.5952 60.5201 64.9827 60.7635 65.1413C61.0068 65.2998 61.3961 65.2293 61.8178 64.9651C62.9208 64.2781 63.8616 62.5165 63.8616 61.1249C63.8616 60.5964 63.7156 60.2089 63.4723 60.0503C63.3912 59.9975 63.2777 59.9623 63.1641 59.9623Z" fill="#16110D"/>
<path d="M73.1727 57.6193C73.1727 59.2399 72.1184 61.2129 70.8207 62.0232C69.5231 62.8335 68.4688 62.1818 68.4688 60.5611C68.4688 58.9405 69.5231 56.9675 70.8207 56.1572C72.1184 55.3469 73.1727 55.9987 73.1727 57.6193Z" fill="#CDCCFF"/>
<path d="M68.8568 61.6533C68.5324 61.6533 68.2242 61.5652 67.9484 61.3891C67.3158 60.9839 66.959 60.1912 66.959 59.1695C66.959 57.3022 68.1269 55.1179 69.603 54.1843C70.4302 53.6734 71.225 53.6029 71.8739 54.0081C72.5065 54.4133 72.8633 55.206 72.8633 56.2277C72.8633 58.0949 71.6954 60.2793 70.2193 61.2129C69.7489 61.5124 69.2948 61.6533 68.873 61.6533H68.8568ZM70.9493 55.065C70.7384 55.065 70.4789 55.1531 70.2031 55.3293C69.1001 56.0163 68.1593 57.7778 68.1593 59.1695C68.1593 59.698 68.3053 60.0855 68.5486 60.244C68.7919 60.4026 69.1812 60.3321 69.603 60.0679C70.706 59.3809 71.6468 57.6193 71.6468 56.2277C71.6468 55.6992 71.5008 55.3117 71.2575 55.1531C71.1764 55.1003 71.0628 55.065 70.9493 55.065Z" fill="#16110D"/>
<path d="M80.9735 52.7222C80.9735 54.3429 79.9192 56.3158 78.6215 57.1261C77.3239 57.9364 76.2695 57.2847 76.2695 55.664C76.2695 54.0434 77.3239 52.0704 78.6215 51.2601C79.9192 50.4498 80.9735 51.1016 80.9735 52.7222Z" fill="#CDCCFF"/>
<path d="M76.6595 56.7738C76.3351 56.7738 76.0269 56.6857 75.7512 56.5095C75.1186 56.1044 74.7617 55.3117 74.7617 54.29C74.7617 52.4227 75.9296 50.2384 77.4057 49.3047C78.2329 48.7939 79.0278 48.7234 79.6766 49.1286C80.3092 49.5337 80.666 50.3264 80.666 51.3482C80.666 53.2154 79.4982 55.3998 78.0221 56.3334C77.5517 56.6328 77.0975 56.7738 76.6758 56.7738H76.6595ZM78.752 50.1855C78.5411 50.1855 78.2816 50.2736 78.0059 50.4498C76.9028 51.1368 75.9621 52.8983 75.9621 54.29C75.9621 54.8184 76.108 55.206 76.3513 55.3645C76.5947 55.5231 76.984 55.4526 77.4057 55.1884C78.5087 54.5014 79.4495 52.7398 79.4495 51.3482C79.4495 50.8197 79.3035 50.4321 79.0602 50.2736C78.9791 50.2208 78.8655 50.1855 78.752 50.1855Z" fill="#16110D"/>
<path d="M45.4517 56.6857L53.5782 62.0232L52.9456 69.5099L54.4541 76.0629L46.2303 70.4435L44.6406 66.3743L44.7866 60.244L45.4517 56.6857Z" fill="#16110D"/>
<path d="M2.72654 37.1146L13.3511 44.2137L11.5668 53.9376L12.4752 62.6045L14.2594 68.0477L5.06232 62.1993L1.94795 56.7737L0.8125 50.1854L1.15313 44.2137L2.72654 37.1146Z" fill="#16110D"/>
<path d="M17.9733 72.6631L13.0098 69.5099V67.396L16.4972 69.6508L17.9733 72.6631Z" fill="white"/>
</svg>
