<svg width="88" height="88" viewBox="0 0 88 88" fill="none" xmlns="http://www.w3.org/2000/svg">
<rect width="88" height="88" rx="44" fill="#624AFF"/>
<path d="M32.8907 41.04C36.5744 41.04 39.5607 38.0537 39.5607 34.37C39.5607 30.6862 36.5744 27.7 32.8907 27.7C29.207 27.7 26.2207 30.6862 26.2207 34.37C26.2207 38.0537 29.207 41.04 32.8907 41.04Z" fill="white"/>
<path d="M55.1114 41.04C58.7951 41.04 61.7814 38.0537 61.7814 34.37C61.7814 30.6862 58.7951 27.7 55.1114 27.7C51.4277 27.7 48.4414 30.6862 48.4414 34.37C48.4414 38.0537 51.4277 41.04 55.1114 41.04Z" fill="white"/>
<path d="M66.1905 52.7C66.1905 56.7 62.9605 59.93 58.9705 59.93C57.4705 59.93 56.0805 59.47 54.9205 58.69C54.8805 58.66 54.8405 58.63 54.7905 58.59C54.5905 58.46 54.4105 58.32 54.2305 58.16C51.4305 56.1 47.9705 54.88 44.2305 54.88C40.4905 54.88 36.7105 56.22 33.8505 58.46C33.7005 58.61 33.5305 58.74 33.3605 58.86C32.1505 59.77 30.6605 60.3 29.0405 60.3C25.0405 60.3 21.8105 57.07 21.8105 53.07C21.8105 49.07 25.0405 45.85 29.0405 45.85C30.7805 45.85 32.3805 46.47 33.6405 47.5C33.6605 47.51 33.6705 47.52 33.6805 47.53C36.4905 49.63 39.9805 50.88 43.7705 50.88C47.7505 50.88 51.4005 49.5 54.2805 47.2C54.3505 47.15 54.4205 47.09 54.5005 47.03C54.5005 47.02 54.5305 47.01 54.5505 46.99C55.7705 46.04 57.3005 45.48 58.9705 45.48C62.9605 45.48 66.1905 48.71 66.1905 52.7Z" fill="white"/>
</svg>
