<?xml version="1.0" standalone="no"?>
<!DOCTYPE svg PUBLIC "-//W3C//DTD SVG 20010904//EN"
 "http://www.w3.org/TR/2001/REC-SVG-20010904/DTD/svg10.dtd">
<svg version="1.0" xmlns="http://www.w3.org/2000/svg"
 width="700.000000pt" height="700.000000pt" viewBox="0 0 700.000000 700.000000"
 preserveAspectRatio="xMidYMid meet">
<metadata>
Created by potrace 1.14, written by Peter Selinger 2001-2017
</metadata>
<g transform="translate(0.000000,700.000000) scale(0.100000,-0.100000)"
fill="#000000" stroke="none">
<path d="M3215 6994 c-741 -74 -1363 -322 -1919 -766 -140 -112 -443 -420
-550 -558 -433 -562 -673 -1169 -737 -1870 -15 -161 -6 -606 15 -755 92 -651
320 -1194 722 -1715 113 -148 435 -469 584 -584 560 -432 1178 -676 1870 -737
170 -15 603 -6 755 15 650 92 1195 321 1715 722 149 114 470 435 584 584 404
525 624 1049 723 1725 25 172 25 718 0 890 -101 688 -324 1213 -747 1757 -95
123 -427 450 -560 552 -521 401 -1061 629 -1715 722 -105 15 -640 28 -740 18z
m-471 -2219 c98 -26 166 -65 241 -140 105 -105 155 -225 155 -370 0 -331 -307
-581 -632 -514 -235 48 -418 273 -418 514 0 233 166 449 391 509 71 19 191 20
263 1z m1771 0 c269 -71 440 -345 384 -617 -40 -196 -211 -366 -407 -407 -324
-67 -632 183 -632 514 0 145 50 265 155 370 105 105 219 153 365 154 42 1 102
-6 135 -14z m290 -1410 c217 -46 390 -215 441 -433 33 -138 3 -310 -76 -429
-113 -171 -278 -262 -477 -263 -141 0 -242 36 -381 138 -158 115 -352 200
-549 239 -129 25 -377 23 -503 -5 -206 -45 -399 -132 -560 -253 -147 -111
-247 -149 -390 -149 -159 0 -286 53 -400 169 -87 88 -123 148 -150 257 -49
190 0 385 131 527 128 139 325 209 503 178 106 -19 168 -47 304 -138 183 -124
326 -186 522 -229 132 -29 401 -27 540 4 198 44 375 127 549 256 174 129 320
168 496 131z"/>
</g>
</svg>
